<svg width="181" height="181" viewBox="0 0 181 181" fill="none" xmlns="http://www.w3.org/2000/svg">
<path d="M69.4605 159.693C107.822 171.166 148.221 149.367 159.693 111.005C171.166 72.6432 149.367 32.2446 111.005 20.7723C72.6432 9.30008 32.2446 31.0985 20.7723 69.4605C9.3001 107.822 31.0985 148.221 69.4605 159.693Z" fill="white"/>
<path d="M50.9297 47.1833C51.3336 46.8449 51.4139 46.6811 50.9892 46.1471L47.5585 41.7766L50.0551 39.6743L54.7869 45.2948L53.8869 46.0536L49.8286 41.2345L49.0549 41.8849L51.8188 45.3621C52.6519 46.4147 52.6204 47.1306 51.7357 47.873L51.597 47.9881L50.9188 47.1852L50.9297 47.1833Z" fill="black"/>
<path d="M56.3856 44.1189L55.4218 44.8116L51.1456 38.8369L51.9825 38.2367L54.6864 42.0194L54.0889 40.458L53.0918 37.4414L54.1268 36.7021L58.403 42.6769L57.5599 43.2805L54.5502 39.0724L55.2182 40.8166L56.3952 44.1218L56.3856 44.1189Z" fill="black"/>
<path d="M59.0419 42.2679L55.2011 36.006L57.7959 34.4131L58.3425 35.307L56.7331 36.2919L60.021 41.6633L59.0371 42.2665L59.0419 42.2679Z" fill="black"/>
<path d="M65.5592 38.6027L64.5273 39.1394L63.7358 38.0522L62.4814 38.705L62.9197 39.9787L61.9797 40.4698L59.6245 33.4103L61.1216 32.6266L65.5606 38.5979L65.5592 38.6027ZM62.145 37.7539L63.1333 37.2407L60.9223 34.2002L62.145 37.7539Z" fill="black"/>
<path d="M66.4099 31.2914L66.826 34.0351L68.4924 36.4536L67.5303 36.8442L65.8529 34.4277L65.443 31.6806L66.4051 31.29L66.4099 31.2914ZM67.989 30.6523L68.405 33.396L70.0715 35.8145L69.1094 36.2051L67.4319 33.7885L67.0221 31.0414L67.9842 30.6508L67.989 30.6523Z" fill="black"/>
<path d="M72.5412 33.6102L71.7366 28.3971L73.2684 27.916L75.4608 34.9268L74.4191 35.2519L72.8437 30.2257L73.6595 35.4891L72.6178 35.8142L70.246 31.1133L71.8002 36.0706L70.8386 36.3726L68.6462 29.3618L70.178 28.8806L72.5489 33.6021L72.5412 33.6102Z" fill="black"/>
<path d="M74.8784 29.3367C74.6212 28.1901 75.0821 27.3992 76.1894 27.1512C77.2967 26.9032 78.0484 27.4254 78.3056 28.5719L79.1367 32.3007C79.3938 33.4472 78.9329 34.2381 77.8256 34.4862C76.7184 34.7342 75.9667 34.212 75.7095 33.0654L74.8784 29.3367ZM76.8537 32.8859C76.9662 33.3995 77.2364 33.5429 77.5945 33.4622C77.9526 33.3814 78.1348 33.1385 78.0223 32.6248L77.1566 28.7501C77.0441 28.2364 76.7739 28.093 76.4158 28.1737C76.0577 28.2545 75.8755 28.4974 75.988 29.0111L76.8537 32.8859Z" fill="black"/>
<path d="M79.7046 32.914C80.2227 32.8394 80.3825 32.7411 80.3029 32.065L79.7005 26.5419L82.9331 26.079L83.9775 33.3518L82.8155 33.5208L81.9205 27.2841L80.9223 27.4291L81.4284 31.8433C81.5775 33.1767 81.1768 33.7665 80.0321 33.9303L79.8573 33.9563L79.7094 32.9155L79.7046 32.914Z" fill="black"/>
<path d="M84.3092 27.7063C84.233 26.5304 84.8055 25.8198 85.9388 25.7465C87.0721 25.6732 87.7353 26.2994 87.8115 27.4753L88.0634 31.2917C88.141 32.4628 87.567 33.1782 86.4337 33.2515C85.3004 33.3248 84.6372 32.6986 84.561 31.5227L84.3092 27.7063ZM85.7202 31.5198C85.7571 32.0421 85.9986 32.2291 86.3663 32.2034C86.734 32.1777 86.9488 31.9654 86.9182 31.4397L86.6571 27.4797C86.6203 26.9573 86.3788 26.7703 86.0111 26.796C85.6434 26.8217 85.4286 27.034 85.4592 27.5597L85.7202 31.5198Z" fill="black"/>
<path d="M92.1476 34.0524L92.1611 33.0651L89.6928 33.0313L89.6793 34.0186L88.5574 34.0014L88.5863 31.9856L89.0388 31.9904C89.243 31.7437 89.3089 31.4712 89.3334 31.0402L89.6692 25.6777L92.9017 25.7208L92.8124 32.0389L93.317 32.0437L93.2881 34.0595L92.1457 34.0414L92.1476 34.0524ZM90.4672 31.0349C90.426 31.5913 90.318 31.8304 90.1291 32.0086L91.6417 32.0279L91.7147 26.759L90.7383 26.7435L90.4672 31.0349Z" fill="black"/>
<path d="M95.9287 24.5494L95.8367 25.555L94.8311 25.463L94.9231 24.4574L95.9287 24.5494ZM95.402 29.0148L96.9818 29.1585L96.8879 30.2053L95.3082 30.0616L95.1108 32.2044L97.0966 32.3861L97.0027 33.4329L93.8639 33.1464L94.5341 25.8281L97.6729 26.1145L97.579 27.1613L95.5932 26.9797L95.4068 29.0162L95.402 29.0148ZM97.518 24.6959L97.426 25.7016L96.4204 25.6095L96.5124 24.6039L97.518 24.6959Z" fill="black"/>
<path d="M101.667 29.751L103.539 27.0705L104.678 27.2754L102.749 29.9546L103.366 34.5061L102.198 34.2926L101.746 30.9016L101.368 31.3989L100.886 34.0568L99.7582 33.8499L100.239 31.1969L100.06 30.5904L98.4446 33.6188L97.2771 33.4054L99.4531 29.3915L98.5841 26.1732L99.723 26.3781L100.535 29.5428L101.065 26.6177L102.193 26.8246L101.663 29.7496L101.667 29.751Z" fill="black"/>
<path d="M103.718 34.6533L105.661 27.5642L106.774 27.8711L106.046 30.5335L106.572 30.6752C107.686 30.9821 108.062 31.7469 107.755 32.881L107.5 33.8015C107.187 34.9342 106.473 35.404 105.359 35.0971L103.72 34.6485L103.718 34.6533ZM105.635 34.089C105.987 34.184 106.228 34.0784 106.364 33.5712L106.655 32.5104C106.796 32.0047 106.647 31.7879 106.289 31.6915L105.763 31.5497L105.107 33.952L105.633 34.0938L105.635 34.089Z" fill="black"/>
<path d="M113.271 34.9011L112.924 35.815C112.508 36.9114 111.714 37.3315 110.656 36.9264C109.598 36.5213 109.289 35.6879 109.707 34.5868L111.072 31.0189C111.488 29.9225 112.282 29.5024 113.34 29.9075C114.398 30.3126 114.707 31.146 114.289 32.2471L114.033 32.9115L113.012 32.5226L113.294 31.7879C113.483 31.2964 113.338 31.0289 112.991 30.899C112.649 30.7705 112.362 30.8727 112.174 31.3641L110.758 35.068C110.569 35.5595 110.717 35.8174 111.064 35.9473C111.406 36.0758 111.69 35.9832 111.877 35.4966L112.253 34.5185L113.274 34.9074L113.271 34.9011Z" fill="black"/>
<path d="M115.418 38.9036L114.358 38.3673L117.661 31.8051L118.582 32.2683L116.489 36.4219L117.59 35.165L119.797 32.8821L120.93 33.4556L117.626 40.0178L116.696 39.5518L119.022 34.9306L117.79 36.3308L115.412 38.907L115.418 38.9036Z" fill="black"/>
<path d="M120.597 42.9413L121.11 42.0981L119.006 40.8114L118.493 41.6546L117.537 41.066L118.589 39.3456L118.973 39.5804C119.271 39.4715 119.472 39.2707 119.714 38.9152L122.738 34.4763L125.495 36.1617L122.197 41.5518L122.625 41.8152L121.573 43.5355L120.599 42.9365L120.597 42.9413ZM120.689 39.4937C120.37 39.9512 120.158 40.1018 119.902 40.1556L121.19 40.9426L123.942 36.4489L123.109 35.9388L120.691 39.4889L120.689 39.4937Z" fill="black"/>
<path d="M125.963 40.2672L127.244 41.1983L126.63 42.0478L125.349 41.1166L124.087 42.8578L125.703 44.0299L125.089 44.8794L122.538 43.031L126.849 37.078L129.4 38.9264L128.786 39.7759L127.17 38.6037L125.969 40.2638L125.963 40.2672Z" fill="black"/>
<path d="M125.434 45.1391C125.699 45.0043 125.872 44.8107 126.105 44.5362L126.834 43.6689C127.328 43.0809 127.826 42.776 128.424 42.9598C128.186 42.4453 128.315 41.9098 128.801 41.3301L129.174 40.8883C129.903 40.021 130.652 39.9217 131.57 40.6918L132.905 41.8111L128.189 47.4446L127.304 46.7051L129.226 44.4104L128.923 44.1526C128.523 43.8139 128.18 43.8626 127.742 44.3839L127.003 45.2689C126.62 45.7284 126.513 45.7903 126.34 45.8953L125.439 45.1405L125.434 45.1391ZM130.917 41.514C130.604 41.2533 130.319 41.3144 129.981 41.714L129.517 42.2694C129.142 42.7207 129.221 43.0314 129.55 43.3122L129.896 43.6035L131.343 41.8708L130.917 41.514Z" fill="black"/>
<path d="M131.99 48.1327L136.224 44.9846L137.363 46.1131L132.188 51.3276L131.416 50.5593L135.127 46.8218L130.848 49.9982L130.076 49.2299L133.123 44.939L129.464 48.6242L128.747 47.9143L133.923 42.6998L135.06 43.8331L131.99 48.1327Z" fill="black"/>
<path d="M133.431 52.7898L132.664 51.8822L138.271 47.1414L138.935 47.9241L135.386 50.9274L136.891 50.2036L139.818 48.9657L140.639 49.9365L135.031 54.6773L134.361 53.8821L138.314 50.5404L136.633 51.3472L133.437 52.7864L133.431 52.7898Z" fill="black"/>
<path d="M141.108 52.1535L139.316 54.2733L136.619 55.4392L136.005 54.598L138.698 53.4259L140.498 51.3137L141.113 52.1549L141.108 52.1535ZM142.111 53.5282L140.314 55.6467L137.617 56.8125L137.003 55.9713L139.696 54.7992L141.497 52.687L142.111 53.5282Z" fill="black"/>
<path d="M146.966 77.0405C147.067 77.5561 147.168 77.7064 147.842 77.6L153.33 76.7314L153.947 79.937L146.732 81.3275L146.508 80.1752L152.693 78.9829L152.504 77.9923L148.12 78.711C146.794 78.9248 146.186 78.5499 145.967 77.4148L145.931 77.2372L146.961 77.0391L146.966 77.0405Z" fill="black"/>
<path d="M146.979 83.2953L146.846 82.118L154.149 81.302L154.262 82.3218L149.641 82.839L151.296 83.0785L154.418 83.6833L154.557 84.9459L147.253 85.7619L147.139 84.7311L152.283 84.1563L150.439 83.8865L146.982 83.3015L146.979 83.2953Z" fill="black"/>
<path d="M147.3 86.5116L154.644 86.2242L154.763 89.2651L153.712 89.3057L153.636 87.415L147.343 87.6617L147.297 86.5054L147.3 86.5116Z" fill="black"/>
<path d="M147.311 93.9969L147.346 92.8334L148.687 92.6761L148.729 91.2593L147.403 91.0191L147.438 89.9599L154.746 91.3627L154.694 93.0535L147.316 93.9984L147.311 93.9969ZM149.72 91.4356L149.685 92.5469L153.417 92.108L149.72 91.4356Z" fill="black"/>
<path d="M153.258 98.327L150.665 97.3481L147.741 97.6164L147.872 96.5859L150.799 96.308L153.394 97.2978L153.263 98.3284L153.258 98.327ZM153.04 100.015L150.448 99.0361L147.524 99.3044L147.655 98.2739L150.581 97.996L153.174 98.9907L153.044 100.021L153.04 100.015Z" fill="black"/>
<path d="M148.237 102.518L153.178 104.371L152.844 105.941L145.656 104.417L145.882 103.348L151.038 104.441L146.047 102.567L146.273 101.498L151.534 101.735L146.451 100.659L146.662 99.6729L153.85 101.196L153.517 102.766L148.234 102.512L148.237 102.518Z" fill="black"/>
<path d="M150.821 106.703C151.941 107.059 152.397 107.853 152.053 108.934C151.709 110.016 150.883 110.405 149.763 110.049L146.121 108.898C145.001 108.542 144.545 107.748 144.889 106.667C145.233 105.585 146.058 105.2 147.179 105.551L150.821 106.703ZM146.757 106.63C146.257 106.471 145.995 106.632 145.886 106.98C145.776 107.328 145.896 107.609 146.396 107.769L150.18 108.969C150.68 109.129 150.942 108.967 151.052 108.619C151.161 108.271 151.041 107.99 150.541 107.83L146.757 106.63Z" fill="black"/>
<path d="M145.334 109.106C145.145 109.597 145.154 109.777 145.783 110.044L150.9 112.216L149.728 115.262L142.873 112.622L143.294 111.527L149.171 113.791L149.536 112.851L145.435 111.14C144.198 110.618 143.877 109.98 144.294 108.899L144.36 108.731L145.338 109.107L145.334 109.106Z" fill="black"/>
<path d="M147.628 115.652C148.688 116.156 149.029 117.004 148.545 118.029C148.062 119.053 147.188 119.323 146.123 118.817L142.673 117.18C141.614 116.676 141.273 115.827 141.756 114.803C142.24 113.779 143.114 113.508 144.179 114.015L147.628 115.652ZM143.615 115.025C143.14 114.8 142.863 114.926 142.707 115.255C142.55 115.588 142.63 115.879 143.105 116.104L146.686 117.807C147.162 118.032 147.439 117.906 147.595 117.577C147.752 117.244 147.672 116.953 147.197 116.728L143.615 115.025Z" fill="black"/>
<path d="M138.266 119.41L139.119 119.906L140.353 117.77L139.498 117.279L140.06 116.305L141.805 117.312L141.578 117.703C141.698 118 141.902 118.191 142.265 118.425L146.781 121.33L145.166 124.13L139.692 120.974L139.441 121.411L137.697 120.404L138.27 119.412L138.266 119.41ZM141.718 119.415C141.252 119.108 141.095 118.9 141.035 118.647L140.278 119.955L144.844 122.588L145.332 121.743L141.718 119.415Z" fill="black"/>
<path d="M141.075 124.706L140.178 126.014L139.312 125.421L140.209 124.113L138.433 122.899L137.304 124.544L136.438 123.951L138.217 121.352L144.274 125.507L142.495 128.105L141.629 127.512L142.758 125.867L141.069 124.71L141.075 124.706ZM143.812 128.656L142.982 128.084L143.554 127.253L144.384 127.825L143.812 128.656ZM144.713 127.339L143.882 126.767L144.454 125.936L145.284 126.508L144.713 127.339Z" fill="black"/>
<path d="M137.374 129.824L138.8 132.766L138.064 133.657L136.663 130.666L132.393 128.982L133.147 128.065L136.324 129.322L136.074 128.747L133.993 127.034L134.721 126.151L136.802 127.864L137.417 128.006L135.567 125.12L136.321 124.203L138.757 128.062L141.988 128.877L141.252 129.768L138.094 128.934L140.388 130.825L139.66 131.708L137.366 129.817L137.374 129.824Z" fill="black"/>
<path d="M132.084 129.228L137.312 134.392L136.503 135.215L134.537 133.275L134.155 133.662C133.346 134.484 132.488 134.437 131.656 133.609L130.975 132.935C130.137 132.111 130.08 131.254 130.894 130.433L132.09 129.225L132.084 129.228ZM131.637 131.177C131.376 131.438 131.356 131.698 131.731 132.066L132.518 132.838C132.893 133.206 133.15 133.184 133.411 132.923L133.792 132.536L132.025 130.787L131.643 131.173L131.637 131.177Z" fill="black"/>
<path d="M127.198 137.42L126.572 136.669C125.819 135.766 125.842 134.87 126.716 134.145C127.59 133.421 128.471 133.564 129.218 134.466L131.663 137.404C132.416 138.307 132.393 139.203 131.521 139.923C130.648 140.643 129.766 140.505 129.018 139.603L128.561 139.054L129.401 138.356L129.904 138.96C130.238 139.362 130.543 139.37 130.829 139.132C131.112 138.898 131.161 138.595 130.828 138.192L128.291 135.143C127.957 134.741 127.66 134.741 127.375 134.979C127.091 135.212 127.034 135.508 127.372 135.912L128.044 136.718L127.204 137.417L127.198 137.42Z" fill="black"/>
<path d="M122.654 137.329L123.639 136.669L127.738 142.768L126.883 143.342L124.285 139.481L124.837 141.055L125.748 144.098L124.697 144.806L120.597 138.712L121.46 138.13L124.35 142.423L123.734 140.663L122.654 137.329Z" fill="black"/>
<path d="M116.592 139.873L117.076 140.733L119.231 139.53L118.747 138.67L119.724 138.123L120.706 139.882L120.311 140.103C120.258 140.421 120.339 140.691 120.531 141.077L122.922 145.888L120.103 147.466L117.014 141.951L116.576 142.195L115.594 140.436L116.591 139.878L116.592 139.873ZM119.554 141.641C119.312 141.14 119.282 140.876 119.361 140.628L118.045 141.367L120.619 145.966L121.471 145.491L119.559 141.642L119.554 141.641Z" fill="black"/>
<path d="M116.304 145.86L114.864 146.525L114.423 145.574L115.863 144.909L114.961 142.954L113.151 143.79L112.71 142.839L115.568 141.518L118.656 148.186L115.798 149.507L115.357 148.556L117.167 147.72L116.309 145.862L116.304 145.86Z" fill="black"/>
<path d="M112.314 143.013C112.304 143.307 112.386 143.556 112.515 143.892L112.918 144.952C113.189 145.67 113.212 146.256 112.759 146.689C113.325 146.733 113.724 147.108 113.998 147.816L114.201 148.357C114.604 149.417 114.321 150.12 113.202 150.547L111.572 151.165L108.955 144.299L110.033 143.886L111.096 146.682L111.468 146.538C111.958 146.35 112.084 146.033 111.841 145.397L111.428 144.319C111.214 143.759 111.214 143.639 111.206 143.438L112.306 143.021L112.314 143.013ZM112.8 149.571C113.183 149.425 113.266 149.147 113.08 148.653L112.823 147.976C112.611 147.427 112.302 147.345 111.897 147.496L111.473 147.656L112.278 149.764L112.796 149.565L112.8 149.571Z" fill="black"/>
<path d="M106.503 147.281L107.188 152.51L105.647 152.952L103.616 145.891L104.666 145.589L106.121 150.652L105.431 145.369L106.482 145.067L108.743 149.824L107.309 144.83L108.28 144.551L110.311 151.613L108.768 152.059L106.508 147.282L106.503 147.281Z" fill="black"/>
<path d="M101.725 146.264L102.889 146.038L104.295 153.252L103.286 153.451L102.397 148.886L102.295 150.551L101.946 153.708L100.7 153.951L99.2932 146.737L100.313 146.536L101.304 151.617L101.423 149.753L101.727 146.259L101.725 146.264Z" fill="black"/>
<path d="M96.8639 153.482L95.8877 150.884L96.184 147.957L97.2128 147.831L96.9276 150.757L97.8928 153.357L96.8591 153.481L96.8639 153.482ZM98.5544 153.273L97.5783 150.675L97.8731 147.752L98.9019 147.627L98.6167 150.552L99.5819 153.152L98.553 153.278L98.5544 153.273Z" fill="black"/>
<path d="M73.9602 146.2C73.4616 146.035 73.2801 146.049 73.0456 146.693L71.1109 151.906L68.0121 150.875L70.3331 143.899L71.4486 144.269L69.4619 150.25L70.4208 150.568L71.9402 146.394C72.4055 145.135 73.0272 144.783 74.1221 145.152L74.2945 145.204L73.9635 146.206L73.9602 146.2Z" fill="black"/>
<path d="M68.5005 143.153L69.5935 143.616L66.7395 150.385L65.7891 149.986L67.5977 145.701L66.5809 147.025L64.5294 149.453L63.3578 148.956L66.2119 142.187L67.1703 142.593L65.1601 147.361L66.2969 145.88L68.4957 143.152L68.5005 143.153Z" fill="black"/>
<path d="M65.5407 141.866L62.2101 148.415L59.4973 147.035L59.9758 146.098L61.6601 146.956L64.5137 141.34L65.5422 141.861L65.5407 141.866Z" fill="black"/>
<path d="M59.0013 138.225L60.0006 138.827L59.4874 140.072L60.7043 140.801L61.5638 139.759L62.4759 140.303L57.6875 146.003L56.2354 145.136L59.0061 138.227L59.0013 138.225ZM60.0643 141.58L59.1086 141.007L57.6732 144.481L60.0643 141.58Z" fill="black"/>
<path d="M50.9489 140.289L53.0695 138.502L54.2637 135.817L55.1007 136.438L53.9161 139.126L51.7874 140.905L50.9552 140.285L50.9489 140.289ZM52.3154 141.303L54.4359 139.516L55.6302 136.831L56.4672 137.452L55.2826 140.139L53.1539 141.919L52.3217 141.299L52.3154 141.303Z" fill="black"/>
<path d="M51.1042 134.867L47.0746 138.274L45.8665 137.219L50.7078 131.691L51.5305 132.412L48.0593 136.377L52.1305 132.936L52.9533 133.656L50.1795 138.133L53.6035 134.221L54.3597 134.886L49.5184 140.414L48.3104 139.359L51.1076 134.873L51.1042 134.867Z" fill="black"/>
<path d="M46.2401 135.098C45.3909 135.913 44.4773 135.932 43.6928 135.119C42.9035 134.303 42.9573 133.391 43.8065 132.575L46.5564 129.922C47.4056 129.107 48.3191 129.088 49.1037 129.901C49.893 130.717 49.8392 131.629 48.99 132.445L46.2401 135.098ZM48.2413 131.564C48.6222 131.198 48.6032 130.895 48.3482 130.63C48.0933 130.366 47.7887 130.338 47.4141 130.701L44.5552 133.456C44.1743 133.822 44.1933 134.126 44.4482 134.39C44.7032 134.654 45.0077 134.682 45.3823 134.319L48.2413 131.564Z" fill="black"/>
<path d="M46.7908 129.121C46.4572 128.719 46.2948 128.634 45.7526 129.051L41.3524 132.441L39.2717 129.925L44.9349 125.242L45.686 126.151L40.8338 130.162L41.478 130.939L44.9815 128.21C46.0423 127.384 46.7553 127.425 47.4915 128.313L47.6066 128.452L46.797 129.118L46.7908 129.121Z" fill="black"/>
<path d="M39.947 127.894C38.9876 128.572 38.0792 128.452 37.4272 127.526C36.7752 126.601 36.964 125.708 37.9282 125.031L41.0496 122.828C42.009 122.15 42.9175 122.27 43.5695 123.196C44.2215 124.121 44.0326 125.014 43.0684 125.691L39.947 127.894ZM42.4652 124.707C42.8954 124.403 42.9224 124.103 42.7105 123.8C42.4972 123.501 42.2022 123.423 41.772 123.728L38.5314 126.015C38.1012 126.319 38.0742 126.619 38.2861 126.922C38.4995 127.221 38.7945 127.299 39.2247 126.994L42.4652 124.707Z" fill="black"/>
<path d="M41.2675 117.895L40.418 118.397L41.6768 120.522L42.5262 120.019L43.0988 120.984L41.3673 122.01L41.1386 121.624C40.8177 121.58 40.5516 121.667 40.1735 121.867L35.4249 124.381L33.7725 121.602L39.209 118.375L38.952 117.943L40.6834 116.917L41.266 117.9L41.2675 117.895ZM39.5742 120.905C40.069 120.646 40.329 120.614 40.5795 120.684L39.8098 119.384L35.2754 122.072L35.776 122.91L39.5756 120.9L39.5742 120.905Z" fill="black"/>
<path d="M30.4801 118.217L31.3851 117.773L31.8293 118.678L30.9242 119.122L30.4801 118.217ZM35.2707 117.761L34.5685 116.34L35.5109 115.876L36.2131 117.296L38.1414 116.344L37.2569 114.556L38.1993 114.092L39.5937 116.914L33.0004 120.171L31.606 117.348L32.5484 116.884L33.4329 118.672L35.2693 117.766L35.2707 117.761ZM31.189 119.65L32.0941 119.206L32.5382 120.111L31.6332 120.555L31.189 119.65Z" fill="black"/>
<path d="M32.6189 112.042L29.3517 111.853L28.9323 110.778L32.2277 111.012L35.7794 108.104L36.2109 109.208L33.561 111.369L34.1845 111.43L36.6955 110.449L37.113 111.513L34.602 112.494L34.1801 112.963L37.6025 112.755L38.0339 113.86L33.4724 114.108L31.1868 116.534L30.7674 115.459L33.0411 113.108L30.2707 114.189L29.8532 113.125L32.6237 112.044L32.6189 112.042Z" fill="black"/>
<path d="M35.7211 107.705L28.6647 109.754L28.3439 108.645L30.9944 107.878L30.8437 107.353C30.5228 106.245 30.9795 105.52 32.1097 105.196L33.0249 104.927C34.1565 104.597 34.9287 104.964 35.2495 106.072L35.7211 107.705ZM34.2385 106.364C34.1357 106.01 33.9178 105.867 33.4146 106.014L32.3567 106.323C31.8536 106.47 31.7456 106.709 31.8498 107.059L32.0007 107.584L34.3893 106.89L34.2385 106.364Z" fill="black"/>
<path d="M30.9497 99.4431L31.9105 99.2661C33.0648 99.053 33.8317 99.5067 34.042 100.618C34.2522 101.73 33.6969 102.435 32.5427 102.648L28.786 103.346C27.6317 103.559 26.8648 103.105 26.6546 101.994C26.4458 100.877 26.9997 100.177 28.1539 99.9637L28.8553 99.8342L29.0564 100.907L28.2827 101.051C27.7685 101.148 27.6122 101.409 27.6805 101.774C27.7503 102.134 27.9855 102.324 28.5045 102.229L32.4056 101.501C32.9198 101.405 33.0652 101.145 32.9969 100.781C32.9271 100.421 32.7029 100.228 32.1839 100.324L31.1508 100.515L30.9497 99.4431Z" fill="black"/>
<path d="M33.2442 95.5221L33.3395 96.7037L26.018 97.3004L25.9338 96.2735L30.5703 95.8964L28.9244 95.6077L25.8249 94.9104L25.7237 93.6435L33.0452 93.0468L33.1313 94.0847L27.9758 94.5048L29.8143 94.8303L33.2504 95.5187L33.2442 95.5221Z" fill="black"/>
<path d="M33.9897 88.9985L33.0044 88.9961L33.0022 91.4634L33.9876 91.4658L33.9862 92.5872L31.9728 92.5852L31.9728 92.1313C31.7199 91.9304 31.4459 91.8693 31.0198 91.8462L25.6577 91.5784L25.6597 88.344L31.9815 88.351L31.9816 87.8449L33.995 87.847L33.9926 88.9889L33.9897 88.9985ZM30.9972 90.7177C31.5517 90.7478 31.7955 90.8572 31.9738 91.0462L31.9773 89.5342L26.7089 89.5291L26.7092 90.505L31.002 90.7191L30.9972 90.7177Z" fill="black"/>
<path d="M28.913 85.8054L29.0361 84.2247L30.081 84.3076L29.9579 85.8883L32.1031 86.0602L32.2594 84.0721L33.3042 84.1549L33.0541 87.2943L25.7244 86.7146L25.9745 83.5752L27.0193 83.6581L26.863 85.6463L28.902 85.8074L28.913 85.8054Z" fill="black"/>
<path d="M33.3464 83.7345C33.0949 83.581 32.8339 83.5291 32.4844 83.4767L31.3657 83.3091C30.6062 83.1968 30.0869 82.9267 29.9336 82.3226C29.6195 82.7974 29.0949 82.9639 28.3464 82.8497L27.7775 82.763C26.6588 82.5955 26.1833 82.0045 26.3599 80.8207L26.6194 79.0983L33.8858 80.186L33.7159 81.33L30.7588 80.8893L30.6984 81.2833C30.6213 81.8029 30.8351 82.0651 31.5088 82.1675L32.6529 82.3375C33.2424 82.425 33.3549 82.4848 33.5317 82.5742L33.356 83.7374L33.3464 83.7345ZM27.3966 80.9482C27.3381 81.3533 27.536 81.5638 28.0556 81.641L28.7706 81.7452C29.3505 81.8299 29.5758 81.5999 29.6401 81.1756L29.7053 80.7307L27.4728 80.397L27.3919 80.9468L27.3966 80.9482Z" fill="black"/>
<path d="M32.4841 76.5684L27.5894 74.5985L27.9629 73.0353L35.1141 74.7356L34.8641 75.7983L29.7383 74.5837L34.6828 76.5789L34.4281 77.6402L29.1723 77.279L34.2296 78.4783L33.9992 79.4581L26.8481 77.7579L27.2216 76.1947L32.4936 76.5712L32.4841 76.5684Z" fill="black"/>
<path d="M35.7052 72.8983L35.3323 74.0234L28.352 71.7168L28.6758 70.7388L33.0927 72.1953L31.6885 71.2901L29.1051 69.4427L29.5024 68.2362L36.4827 70.5428L36.156 71.5304L31.2406 69.9091L32.8048 70.9248L35.7004 72.8969L35.7052 72.8983Z" fill="black"/>
<path d="M31.1439 66.7079L33.8884 67.1268L36.2959 68.8121L35.9036 69.7748L33.4933 68.0992L30.7517 67.6706L31.1439 66.7079ZM31.7875 65.1316L34.532 65.5505L36.9395 67.2357L36.5472 68.1985L34.1368 66.5229L31.3952 66.0943L31.7875 65.1316Z" fill="black"/>
<path d="M41.1254 55.7511C41.8713 55.9742 42.6568 55.5503 42.8799 54.8044C43.1029 54.0584 42.6791 53.2729 41.9332 53.0499C41.1873 52.8268 40.4017 53.2506 40.1786 53.9966C39.9556 54.7425 40.3795 55.528 41.1254 55.7511Z" fill="black"/>
<path d="M145.531 67.2352C146.277 67.4582 147.062 67.0344 147.285 66.2885C147.508 65.5425 147.084 64.757 146.339 64.5339C145.593 64.3109 144.807 64.7347 144.584 65.4807C144.361 66.2266 144.785 67.0121 145.531 67.2352Z" fill="black"/>
<path d="M85.1144 151.351C85.8603 151.574 86.6458 151.15 86.8688 150.405C87.0919 149.659 86.6681 148.873 85.9221 148.65C85.1762 148.427 84.3907 148.851 84.1676 149.597C83.9445 150.343 84.3684 151.128 85.1144 151.351Z" fill="black"/>
<path d="M112.065 80.7903L96.3122 77.9474L104.892 63.7383L99.5759 60.5258L97.0146 64.7636C97.0307 61.2725 96.1557 57.6036 94.2958 54.1568C90.9421 47.9414 85.2216 43.987 79.4047 43.1815C76.8831 48.4904 77.0491 55.4378 80.4028 61.6533C83.2429 66.9168 87.7766 70.5475 92.6293 72.03L90.2845 75.91L77.2052 70.3393C67.2452 73.4603 58.9652 81.31 55.7498 92.0622C52.2249 103.849 55.7055 116.061 63.7734 124.239L93.6832 133.184C104.916 130.778 114.53 122.481 118.055 110.695C121.267 99.9521 118.663 88.8578 112.066 80.7855L112.065 80.7903Z" fill="#E51E4C"/>
</svg>
