<svg width="234" height="204" viewBox="0 0 234 204" fill="none" xmlns="http://www.w3.org/2000/svg">
<path d="M154.062 59.3747C144.417 55.4065 134.04 53.807 123.829 54.6852L120.695 54.9566L118.539 57.2033L108.332 67.8728L97.579 45.5243L76.8475 55.1105C74.8634 54.6386 72.8271 54.2888 70.7452 54.0689C64.5276 53.4121 58.5126 53.9677 52.9698 55.5517C47.4412 57.1371 42.3913 59.7587 38.143 63.2802C36.6713 64.5001 35.2978 65.8226 34.0357 67.2632L29.9543 71.9083L33.2441 77.3321C34.2619 78.9994 35.4053 80.6019 36.6626 82.1101C40.2918 86.4638 44.8432 90.0924 50.04 92.8179C55.2304 95.5357 61.0738 97.344 67.2914 98.0008C68.0932 98.0855 68.9037 98.1499 69.7088 98.1924L69.2341 99.9005C66.4948 109.757 66.1668 120.243 68.309 130.431C70.4523 140.604 75.1059 150.511 82.2735 159.109C90.1346 168.539 100.087 175.277 110.812 179.125C121.545 182.967 133.049 183.948 144.143 181.93L146.28 181.539L190.175 145.154L190.951 143.13C194.968 132.622 196.103 121.165 194.276 109.94C192.442 98.7218 187.626 87.7273 179.757 78.3033C172.596 69.7126 163.686 63.3477 154.055 59.381L154.062 59.3747Z" fill="white"/>
<path d="M124.775 63.2157L106.095 82.7342L93.6498 56.8658L84.1137 61.2739L87.8254 68.9882C82.8243 65.5892 76.7446 63.2812 70.078 62.577C58.0388 61.3053 47.0746 65.5697 40.5189 73.0146C45.8055 81.7104 55.9317 88.1955 67.9634 89.4735C78.1462 90.5491 87.5564 87.6517 94.1942 82.2285L97.5954 89.2933L77.4708 102.386C72.7235 119.478 76.3262 138.77 88.7799 153.709C102.432 170.086 123.184 176.978 142.405 173.479L182.962 139.862C189.924 121.658 186.922 100.054 173.269 83.6772C160.828 68.7536 142.486 61.7054 124.783 63.2095L124.775 63.2157Z" fill="#E51E4C"/>
</svg>
