<svg width="542" height="410" viewBox="0 0 542 410" fill="none" xmlns="http://www.w3.org/2000/svg">
<path d="M209.124 0.730123L209.124 0.0283101C208.555 0.0283101 207.986 0.00020343 207.388 0.00020346C92.8475 0.000209073 2.90034e-06 91.6143 7.29741e-06 204.633C1.16945e-05 317.653 92.8475 409.267 207.388 409.267C207.986 409.267 208.555 409.253 209.124 409.238L209.835 409.238L209.835 0.0142719L209.124 0.014272L209.124 0.716085L208.412 0.716085L208.412 408.551L209.124 408.551L209.124 407.849C208.526 407.849 207.957 407.877 207.388 407.877C150.502 407.877 99.0212 385.124 61.7513 348.349C24.4815 311.575 1.42252 260.764 1.42252 204.647C1.42252 148.517 24.4815 97.7198 61.7513 60.9311C99.0212 24.1563 150.516 1.40383 207.388 1.40383C207.957 1.40383 208.526 1.4179 209.124 1.43194L209.124 0.730123Z" fill="#E51E4C"/>
<path d="M292.056 0.730123L292.056 0.0283101C291.487 0.0283101 290.918 0.00020343 290.321 0.00020346C175.78 0.000209073 82.9326 91.6143 82.9326 204.633C82.9326 317.653 175.78 409.267 290.321 409.267C290.918 409.267 291.487 409.253 292.056 409.238L292.767 409.238L292.767 0.0142719L292.056 0.014272L292.056 0.716085L291.345 0.716085L291.345 408.551L292.056 408.551L292.056 407.849C291.459 407.849 290.89 407.877 290.321 407.877C233.434 407.877 181.954 385.124 144.684 348.349C107.414 311.575 84.3551 260.764 84.3551 204.647C84.3551 148.517 107.414 97.7198 144.684 60.9311C181.954 24.1563 233.449 1.40383 290.321 1.40383C290.89 1.40383 291.459 1.4179 292.056 1.43194L292.056 0.730123Z" fill="#E51E4C"/>
<path d="M374.989 0.730123L374.989 0.0283101C374.42 0.0283101 373.851 0.00020343 373.253 0.00020346C258.712 0.000209073 165.865 91.6143 165.865 204.633C165.865 317.653 258.712 409.267 373.253 409.267C373.851 409.267 374.42 409.253 374.989 409.238L375.7 409.238L375.7 0.0142719L374.989 0.014272L374.989 0.716085L374.277 0.716085L374.277 408.551L374.989 408.551L374.989 407.849C374.391 407.849 373.822 407.877 373.253 407.877C316.367 407.877 264.886 385.124 227.616 348.349C190.346 311.575 167.288 260.764 167.288 204.647C167.288 148.517 190.346 97.7198 227.616 60.9311C264.886 24.1563 316.381 1.40383 373.253 1.40383C373.822 1.40383 374.391 1.4179 374.989 1.43194L374.989 0.730123Z" fill="#E51E4C"/>
<path d="M457.921 0.730123L457.921 0.0283101C457.352 0.0283101 456.783 0.00020343 456.186 0.00020346C341.645 0.000209073 248.798 91.6143 248.798 204.633C248.798 317.653 341.645 409.267 456.186 409.267C456.783 409.267 457.352 409.253 457.921 409.238L458.632 409.238L458.632 0.0142719L457.921 0.014272L457.921 0.716085L457.21 0.716085L457.21 408.551L457.921 408.551L457.921 407.849C457.324 407.849 456.755 407.877 456.186 407.877C399.299 407.877 347.819 385.124 310.549 348.349C273.279 311.575 250.22 260.764 250.22 204.647C250.22 148.517 273.279 97.7198 310.549 60.9311C347.819 24.1563 399.314 1.40383 456.186 1.40383C456.755 1.40383 457.324 1.4179 457.921 1.43194L457.921 0.730123Z" fill="#E51E4C"/>
<path d="M540.854 0.730123L540.854 0.0283101C540.285 0.0283101 539.716 0.00020343 539.118 0.00020346C424.578 0.000209073 331.73 91.6143 331.73 204.633C331.73 317.653 424.578 409.267 539.118 409.267C539.716 409.267 540.285 409.253 540.854 409.238L541.565 409.238L541.565 0.0142719L540.854 0.014272L540.854 0.716085L540.142 0.716085L540.142 408.551L540.854 408.551L540.854 407.849C540.256 407.849 539.687 407.877 539.118 407.877C482.232 407.877 430.751 385.124 393.481 348.349C356.212 311.575 333.153 260.764 333.153 204.647C333.153 148.517 356.212 97.7198 393.481 60.9311C430.751 24.1563 482.246 1.40383 539.118 1.40383C539.687 1.40383 540.256 1.4179 540.854 1.43194L540.854 0.730123Z" fill="#E51E4C"/>
</svg>
