<svg width="177" height="208" viewBox="0 0 177 208" fill="none" xmlns="http://www.w3.org/2000/svg">
<path d="M119.536 41.2012C110.777 33.398 100.001 28.3805 88.5978 26.6584C77.1942 24.9363 65.1307 26.5361 53.9838 31.943C46.5556 35.546 40.1741 40.5273 35.0439 46.4304C27.3442 55.2872 22.4394 66.1807 20.7874 77.6948C19.1445 89.2045 20.7717 101.371 26.1428 112.625C31.5443 123.943 40.0251 132.863 50.0522 138.735C58.3858 143.62 67.8015 146.44 77.4761 146.892L92.1971 177.737L98.4068 174.725L103.06 184.475L141.303 165.926L136.649 156.175L143.139 153.028L128.418 122.182C134.105 114.279 137.804 105.098 139.209 95.4889C140.916 83.9261 139.294 71.6787 133.893 60.3609C130.312 52.858 125.38 46.4123 119.549 41.2058L119.536 41.2012Z" fill="#34C759"/>
<path d="M124.325 133.547L88.8892 150.726L91.5172 156.23L126.953 139.051L124.325 133.547Z" fill="white"/>
<path d="M128.834 142.982L93.3982 160.16L96.0262 165.664L131.462 148.485L128.834 142.982Z" fill="white"/>
<path d="M126.731 155.296L103.972 166.333L107.158 173.007L129.916 161.97L126.731 155.296Z" fill="white"/>
<path d="M57.6867 39.7064C32.2045 52.0707 21.5287 83.0275 33.8526 108.859C43.1474 128.341 62.8686 139.318 82.9481 138.23L86.9624 146.644L94.0754 143.193L77.089 107.589L83.7507 104.357L100.737 139.961L108.5 136.194L91.5137 100.59L98.1753 97.3575L115.162 132.962L122.275 129.51L118.26 121.096C131.625 105.956 135.436 83.5614 126.141 64.0792C113.821 38.257 83.1689 27.3421 57.6867 39.7064ZM91.5137 100.59L83.7507 104.357L80.0129 96.522L87.7759 92.7553L91.5137 100.59Z" fill="white"/>
</svg>
