<svg width="943" height="938" viewBox="0 0 943 938" fill="none" xmlns="http://www.w3.org/2000/svg">
<path d="M471.5 339.282L472.342 339.648L523.271 222.491L522.155 352.348L617.9 264.6L564.043 382.781L687.184 341.569L589.938 427.616L719.191 440.078L595.355 479.131L708.376 543.071L579.342 528.376L656.586 632.759L544.7 566.861L572.791 693.644L497.395 587.924L471.5 715.164L445.606 587.906L370.191 693.644L398.3 566.861L286.414 632.759L363.64 528.376L234.625 543.071L347.646 479.131L223.791 440.078L353.062 427.616L255.798 341.569L378.957 382.781L325.1 264.6L420.846 352.33L419.711 222.491L471.5 341.569L472.342 339.648L471.5 339.282L472.342 338.916L417.808 213.506L418.979 348.139L319.701 257.188L375.535 379.707L247.855 336.976L348.689 426.207L214.677 439.109L343.089 479.607L225.895 545.908L359.669 530.663L279.588 638.908L395.591 570.558L366.458 702.025L444.654 592.408L471.5 724.351L498.346 592.408L576.542 702.025L547.39 570.558L663.413 638.908L583.313 530.663L717.105 545.908L599.911 479.607L728.323 439.109L594.293 426.207L695.145 336.976L567.447 379.707L623.28 257.188L524.021 348.139L525.192 213.506L470.658 338.916L471.5 339.282L472.342 338.916L471.5 339.282Z" fill="#E51E4C"/>
<path d="M471.5 228.988L472.342 229.354L568.161 8.98537L566.038 251.387L744.774 87.6205L644.252 308.209L874.119 231.294L692.583 391.913L933.868 415.154L702.684 488.043L913.665 607.414L672.818 579.983L817.004 774.841L608.128 651.81L660.594 888.466L519.83 691.119L471.5 928.671L423.17 691.119L282.388 888.466L334.854 651.81L125.996 774.841L270.182 579.983L29.3349 607.414L240.316 488.043L9.13169 415.154L250.417 391.913L68.8629 231.294L298.748 308.209L198.226 87.6205L376.944 251.387L374.839 8.98537L471.5 231.294L472.342 229.354L471.5 228.988L472.342 228.622L372.918 0L375.077 247.197L192.827 80.1908L295.326 305.135L60.9207 226.701L246.044 390.486L0 414.185L235.741 488.519L20.6057 610.251L266.21 582.27L119.17 780.99L332.164 655.525L278.654 896.866L422.218 695.62L471.5 937.84L520.782 695.62L664.327 896.866L610.836 655.525L823.812 780.972L676.79 582.27L922.394 610.251L707.241 488.519L943 414.185L696.938 390.486L882.079 226.701L647.656 305.135L750.173 80.1908L567.904 247.197L570.064 0L470.658 228.622L471.5 228.988L472.342 228.622L471.5 228.988Z" fill="#E51E4C"/>
</svg>
