<svg width="484" height="51" viewBox="0 0 484 51" fill="none" xmlns="http://www.w3.org/2000/svg">
<path d="M325.484 37.6877C325.484 36.2597 325.843 34.5844 327.128 33.8345C327.91 33.3957 329.138 33.1803 329.744 33.0128C330.143 32.9011 330.446 32.6698 330.478 32.3586H331.388C331.388 33.1803 330.965 33.5633 330.223 33.7707C329.713 33.9143 328.348 34.1456 327.63 34.5126C326.833 34.9354 326.426 35.8608 326.322 37.0415H326.362C326.801 35.9486 327.814 35.3582 329.026 35.3582C330.782 35.3582 331.994 36.5948 331.994 38.3977C331.994 40.2007 330.75 41.5808 328.763 41.5808C326.944 41.5808 325.492 40.5038 325.492 37.6797M331.021 38.4456C331.021 37.0495 330.024 36.2118 328.787 36.2118C327.551 36.2118 326.545 37.0495 326.545 38.4296C326.545 39.8098 327.559 40.6634 328.787 40.6634C330.016 40.6634 331.021 39.8337 331.021 38.4456Z" fill="black"/>
<path d="M333.199 35.4697H334.132V39.9851H334.156L337.547 35.4697H338.48V41.3971H337.547V36.8818H337.523L334.148 41.3971H333.199V35.4697Z" fill="black"/>
<path d="M339.477 41.0299L339.876 40.2241C340.387 40.4794 341.057 40.7347 341.982 40.7347C342.908 40.7347 343.634 40.4794 343.634 39.7056C343.634 38.9318 343.067 38.6924 342.03 38.6924H340.913V37.8707H341.982C342.876 37.8707 343.442 37.6633 343.442 37.0091C343.442 36.4028 342.892 36.1396 341.99 36.1396C341.224 36.1396 340.49 36.355 339.988 36.5464L339.669 35.7088C340.219 35.5014 341.081 35.27 342.03 35.27C343.514 35.27 344.415 35.8125 344.415 36.8097C344.415 37.5676 343.905 38.0941 343.003 38.2058V38.2297C343.992 38.3175 344.567 38.836 344.567 39.7694C344.567 40.8703 343.769 41.5803 341.934 41.5803C340.897 41.5803 340.083 41.349 339.469 41.0139" fill="black"/>
<path d="M351.109 35.4697V41.3971H350.191V38.6927H346.737V41.3971H345.811V35.4697H346.737V37.8311H350.191V35.4697H351.109Z" fill="black"/>
<path d="M358.193 38.3978V38.5653H353.263C353.286 39.8737 354.148 40.6954 355.393 40.6954C356.493 40.6954 357.06 40.0412 357.419 39.5626L358.089 40.1689C357.65 40.7831 356.892 41.5889 355.408 41.5889C353.534 41.5889 352.329 40.3204 352.329 38.4457C352.329 36.5709 353.534 35.2786 355.345 35.2786C357.283 35.2786 358.193 36.6427 358.193 38.3978ZM353.302 37.8553H357.187C357.1 36.7784 356.43 36.1402 355.289 36.1402C354.26 36.1402 353.438 36.7305 353.302 37.8553Z" fill="black"/>
<path d="M359.046 38.4377C359.046 36.555 360.371 35.2786 362.269 35.2786C363.027 35.2786 363.665 35.486 364.296 35.8689L363.849 36.6667C363.346 36.3715 362.836 36.18 362.245 36.18C360.897 36.18 360.028 37.1852 360.028 38.4377C360.028 39.6902 360.897 40.6954 362.245 40.6954C362.836 40.6954 363.346 40.5039 363.849 40.2088L364.296 41.0065C363.665 41.3894 363.027 41.5969 362.269 41.5969C360.371 41.5969 359.046 40.3284 359.046 38.4377Z" fill="black"/>
<path d="M331.851 12.3108C335.249 12.3108 338.001 14.7998 338.001 18.2063C338.001 21.6127 335.201 24.1336 332.026 24.1336C330.534 24.1336 329.098 23.7108 328.013 22.4823H327.886V31.0662H325.62V19.1476C325.62 14.9833 328.013 12.3188 331.851 12.3188M331.819 22.1472C334.068 22.1472 335.608 20.3682 335.608 18.2142C335.608 16.0603 334.1 14.3132 331.819 14.3132C329.537 14.3132 327.965 16.0603 327.965 18.1983C327.965 20.3363 329.553 22.1472 331.819 22.1472Z" fill="black"/>
<path d="M340.107 18.2222C340.107 14.8237 342.955 12.3108 346.306 12.3108C349.657 12.3108 352.505 14.8237 352.505 18.2222C352.505 21.6207 349.657 24.1336 346.306 24.1336C342.955 24.1336 340.107 21.6207 340.107 18.2222ZM346.306 22.1392C348.572 22.1392 350.111 20.3921 350.111 18.2222C350.111 16.0523 348.572 14.3052 346.306 14.3052C344.04 14.3052 342.501 16.0363 342.501 18.2222C342.501 20.4081 344.04 22.1392 346.306 22.1392Z" fill="black"/>
<path d="M360.881 24.1336C357.315 24.1336 354.611 21.6366 354.611 18.2222C354.611 14.8078 357.251 12.3108 360.793 12.3108C363.514 12.3108 366.059 13.7867 366.705 16.5868H364.375C363.809 15.079 362.445 14.3052 360.865 14.3052C358.472 14.3052 357.012 16.0842 357.012 18.2541C357.012 20.424 358.52 22.1392 360.913 22.1392C362.469 22.1392 363.873 21.4292 364.423 19.7938H366.769C365.923 22.7774 363.498 24.1336 360.873 24.1336" fill="black"/>
<path d="M375.177 22.4985L371.452 14.7123H371.388V23.8946H369.202V12.5583H372.688L376.374 20.3126H376.438L380.131 12.5583H383.61V23.8946H381.432V14.7123H381.368L377.642 22.4985H375.177Z" fill="black"/>
<path d="M386.043 18.2222C386.043 14.8237 388.891 12.3108 392.241 12.3108C395.592 12.3108 398.44 14.8237 398.44 18.2222C398.44 21.6207 395.592 24.1336 392.241 24.1336C388.891 24.1336 386.043 21.6207 386.043 18.2222ZM392.241 22.1392C394.507 22.1392 396.047 20.3921 396.047 18.2222C396.047 16.0523 394.507 14.3052 392.241 14.3052C389.976 14.3052 388.436 16.0363 388.436 18.2222C388.436 20.4081 389.976 22.1392 392.241 22.1392Z" fill="black"/>
<path d="M399.597 23.9903V21.6449H399.644C400.083 21.6449 400.618 21.4534 400.937 21.0785C401.36 20.6078 401.567 19.7702 401.798 18.5336L402.126 16.7227C402.501 14.6325 403.242 12.5105 406.386 12.5105H410.805V23.8946H408.54V14.6166H406.776C405.013 14.6166 404.638 15.1032 404.216 17.5125L403.921 19.2117C403.665 20.7673 403.274 22.1076 402.461 22.9692C401.846 23.6154 400.985 23.9903 399.836 23.9903H399.597Z" fill="black"/>
<path d="M413.31 18.2222C413.31 14.8237 416.158 12.3108 419.509 12.3108C422.859 12.3108 425.708 14.8237 425.708 18.2222C425.708 21.6207 422.859 24.1336 419.509 24.1336C416.158 24.1336 413.31 21.6207 413.31 18.2222ZM419.509 22.1392C421.775 22.1392 423.314 20.3921 423.314 18.2222C423.314 16.0523 421.775 14.3052 419.509 14.3052C417.243 14.3052 415.704 16.0363 415.704 18.2222C415.704 20.4081 417.243 22.1392 419.509 22.1392Z" fill="black"/>
<path d="M428.332 26.6469H426.146V21.7885H427.622C428.268 21.0625 428.611 19.9776 428.914 18.6612L429.401 16.5552C429.872 14.5288 430.741 12.5105 433.549 12.5105H437.953V21.7885H439.589V26.6469H437.403V23.8946H428.332V26.6469ZM435.711 21.8364V14.5847H433.589C432.209 14.5847 431.747 15.6856 431.467 16.8503L430.965 19.0362C430.693 20.2488 430.271 21.254 429.848 21.6768V21.8364H435.711Z" fill="black"/>
<path d="M447.502 24.1338C443.888 24.1338 441.272 21.6368 441.272 18.2224C441.272 14.808 443.912 12.311 447.423 12.311C450.143 12.311 453.414 14.09 453.414 18.3979V18.8686H443.537C443.777 20.7593 445.253 22.1394 447.486 22.1394C448.811 22.1394 450.398 21.6528 450.837 20.504H453.166C452.456 22.993 449.816 24.1338 447.502 24.1338ZM443.569 8.40991H445.915V10.7553H443.569V8.40991ZM451.052 17.1374C450.693 15.4223 449.369 14.2735 447.391 14.2735C445.412 14.2735 444.056 15.502 443.633 17.1374H451.052ZM448.675 8.40991H451.021V10.7553H448.675V8.40991Z" fill="black"/>
<path d="M464.104 12.5583V17.0577H465.995L468.667 12.5583H471.164L467.845 17.9672L471.435 23.8946H468.898L466.026 19.116H464.104V23.8946H461.966V19.116H460.035L457.171 23.8946H454.626L458.224 17.9672L454.906 12.5583H457.395L460.067 17.0577H461.966V12.5583H464.104Z" fill="black"/>
<path d="M473.023 18.7889L472.991 12.5583H475.257L475.273 15.7813H475.336C476.294 14.6166 477.506 14.0502 478.966 14.0502C481.75 14.0502 484 16.1243 484 19.0202C484 21.9161 481.703 24.1339 478.543 24.1339C475.384 24.1339 473.039 21.8842 473.023 18.7889ZM478.496 22.1395C480.29 22.1395 481.607 20.879 481.607 19.108C481.607 17.3369 480.298 16.0446 478.496 16.0446C476.693 16.0446 475.4 17.3369 475.4 19.108C475.4 20.879 476.709 22.1395 478.496 22.1395Z" fill="black"/>
<path d="M286.322 42.4903L263.937 29.1756V41.3974H257.882V18.5175L285.7 35.0711L314.276 10.7952V41.3974H308.221V23.8865L286.322 42.4903Z" fill="#D0EB00"/>
<path d="M171.364 31.4335H169.673V25.4264C169.673 25.2748 169.689 25.1152 169.761 24.9796L169.745 24.9637C169.609 25.0355 169.466 25.0355 169.258 25.0355H166.378C166.171 25.0355 166.035 25.0355 165.9 24.9637L165.884 24.9796C165.956 25.1152 165.972 25.2748 165.972 25.4264V31.4335H164.28V23.4639H171.372V31.4335H171.364Z" fill="black"/>
<path d="M181.831 27.4445C181.831 29.9256 180.228 31.6886 177.962 31.6886C176.63 31.6886 175.601 31.0504 175.026 29.8777L174.954 29.8937C175.058 30.2766 175.106 30.8989 175.106 31.569V34.8797H173.415V23.4557H175.05C175.05 24.1498 175.018 24.7002 174.946 24.9954L175.018 25.0114C175.609 23.8387 176.622 23.2004 177.954 23.2004C180.212 23.2004 181.823 24.9635 181.823 27.4445M175.042 27.4445C175.042 29.0161 176.111 30.1011 177.627 30.1011C179.143 30.1011 180.028 29.0959 180.028 27.4445C180.028 25.7932 179.127 24.788 177.627 24.788C176.127 24.788 175.042 25.873 175.042 27.4445Z" fill="black"/>
<path d="M191.612 27.4445C191.612 29.8777 189.769 31.6886 187.248 31.6886C184.727 31.6886 182.884 29.8777 182.884 27.4445C182.884 25.0114 184.727 23.2004 187.248 23.2004C189.769 23.2004 191.612 25.0114 191.612 27.4445ZM184.671 27.4445C184.671 29.0002 185.708 30.0293 187.24 30.0293C188.772 30.0293 189.809 28.9922 189.809 27.4445C189.809 25.8969 188.772 24.8518 187.24 24.8518C185.708 24.8518 184.671 25.8889 184.671 27.4445Z" fill="black"/>
<path d="M200.531 27.4445V27.7716H195.409C194.827 27.7716 194.547 27.7397 194.356 27.636L194.324 27.6679L194.396 27.8753C194.571 29.2874 195.449 30.0851 196.861 30.0851C197.794 30.0851 198.48 29.7581 199.278 28.9124L200.315 30.0373C199.382 31.1621 198.265 31.6966 196.829 31.6966C194.348 31.6966 192.673 30.0213 192.673 27.5004C192.673 24.9795 194.276 23.2004 196.725 23.2004C199.174 23.2004 200.539 24.804 200.539 27.4445M194.412 26.6308L194.444 26.6627C194.635 26.559 195.01 26.4872 195.425 26.4872H197.443C198.273 26.4872 198.552 26.5191 198.72 26.6388L198.752 26.6069C198.648 25.4182 197.89 24.7242 196.662 24.7242C195.433 24.7242 194.571 25.4342 194.404 26.6229" fill="black"/>
<path d="M206.538 30.4516L206.139 29.0396C205.932 28.2259 205.652 27.9546 205.014 27.9546H204.272C204.065 27.9546 203.841 27.9387 203.738 27.9227L203.722 27.9387C203.794 28.1621 203.809 28.3376 203.809 28.6647V31.4409H202.118V23.4712H203.809V25.9363C203.809 26.2315 203.794 26.399 203.722 26.6304L203.738 26.6463C203.841 26.6304 204.065 26.6144 204.272 26.6144H205.014C205.668 26.6144 205.86 26.4548 206.155 25.6491L206.737 24.2371C206.961 23.6707 207.431 23.4233 208.293 23.4233H209.139V24.9391H208.78C208.277 24.9391 208.085 25.0588 207.886 25.5454L207.607 26.2714C207.383 26.9255 206.849 27.2367 205.916 27.2526V27.3244C206.937 27.3404 207.399 27.6355 207.607 28.3615L207.934 29.4863C208.07 29.9171 208.189 29.9889 208.748 29.9889H209.178V31.5047H208.173C207.256 31.5047 206.737 31.1776 206.538 30.4676" fill="black"/>
<path d="M217.443 23.4553V25.0269H214.938C214.731 25.0269 214.595 25.0269 214.452 24.9551L214.436 24.9711C214.508 25.1067 214.523 25.2662 214.523 25.4178V31.425H212.832V25.4178C212.832 25.2583 212.848 25.1067 212.92 24.9711L212.904 24.9551C212.768 25.0269 212.625 25.0269 212.417 25.0269H209.912V23.4553H217.435H217.443Z" fill="black"/>
<path d="M232.058 27.4445C232.058 29.8777 230.215 31.6886 227.695 31.6886C225.174 31.6886 223.331 29.8777 223.331 27.4445C223.331 25.0114 225.174 23.2004 227.695 23.2004C230.215 23.2004 232.058 25.0114 232.058 27.4445ZM225.118 27.4445C225.118 29.0002 226.155 30.0293 227.687 30.0293C229.218 30.0293 230.255 28.9922 230.255 27.4445C230.255 25.8969 229.218 24.8518 227.687 24.8518C226.155 24.8518 225.118 25.8889 225.118 27.4445Z" fill="black"/>
<path d="M240.132 23.4553V25.0269H237.627C237.419 25.0269 237.284 25.0269 237.14 24.9551L237.124 24.9711C237.196 25.1067 237.212 25.2662 237.212 25.4178V31.425H235.521V25.4178C235.521 25.2583 235.536 25.1067 235.608 24.9711L235.592 24.9551C235.457 25.0269 235.313 25.0269 235.106 25.0269H232.601V23.4553H240.124H240.132Z" fill="black"/>
<path d="M84.496 50.8826H38.4251V0.0251465H95.6806V15.6853H146.913V35.2305H84.496V50.8826Z" fill="#E51E4C"/>
<path d="M46.5145 12.7495L47.7111 4.83569H50.1522V15.9884H48.4929V7.99484L47.2803 15.9884H45.621L44.3126 8.10653V15.9884H42.7809V4.83569H45.2221L46.5145 12.7495Z" fill="white"/>
<path d="M51.3569 7.5084C51.3569 5.72141 52.2982 4.70825 54.0134 4.70825C55.7286 4.70825 56.67 5.72939 56.67 7.5084V13.3081C56.67 15.0951 55.7286 16.1083 54.0134 16.1083C52.2982 16.1083 51.3569 15.0872 51.3569 13.3081V7.5084ZM53.112 13.4198C53.112 14.2176 53.4629 14.5207 54.0214 14.5207C54.5798 14.5207 54.9308 14.2176 54.9308 13.4198V7.39671C54.9308 6.59895 54.5798 6.29579 54.0214 6.29579C53.4629 6.29579 53.112 6.59895 53.112 7.39671V13.4198Z" fill="white"/>
<path d="M57.3879 14.4089C58.1857 14.4089 58.441 14.2972 58.4729 13.2601L58.7601 4.83569H63.7142V15.9884H61.9272V6.43122H60.3954L60.204 13.1723C60.1402 15.2146 59.4063 16.0044 57.6592 16.0044H57.3879V14.4089Z" fill="white"/>
<path d="M64.9906 7.5084C64.9906 5.72141 65.932 4.70825 67.6472 4.70825C69.3624 4.70825 70.3037 5.72939 70.3037 7.5084V13.3081C70.3037 15.0951 69.3624 16.1083 67.6472 16.1083C65.932 16.1083 64.9906 15.0872 64.9906 13.3081V7.5084ZM66.7457 13.4198C66.7457 14.2176 67.0968 14.5207 67.6552 14.5207C68.2136 14.5207 68.5647 14.2176 68.5647 13.4198V7.39671C68.5647 6.59895 68.2136 6.29579 67.6552 6.29579C67.0968 6.29579 66.7457 6.59895 66.7457 7.39671V13.4198Z" fill="white"/>
<path d="M76.5821 17.4803V15.9805H72.8406V17.4803H71.1334V14.4248H71.8195C72.1226 14.0419 72.2184 13.6271 72.2503 12.9729L72.6492 4.83569H77.5554V14.4248H78.3213V17.4803H76.5821ZM73.9734 12.941C73.9255 13.7866 73.766 14.1536 73.4788 14.4248H75.7764V6.42325H74.2925L73.9734 12.941Z" fill="white"/>
<path d="M79.2228 7.5084C79.2228 5.72141 80.1641 4.70825 81.8793 4.70825C83.5945 4.70825 84.5358 5.72939 84.5358 7.5084V13.3081C84.5358 15.0951 83.5945 16.1083 81.8793 16.1083C80.1641 16.1083 79.2228 15.0872 79.2228 13.3081V7.5084ZM80.9778 13.4198C80.9778 14.2176 81.3288 14.5207 81.8873 14.5207C82.4457 14.5207 82.7967 14.2176 82.7967 13.4198V7.39671C82.7967 6.59895 82.4457 6.29579 81.8873 6.29579C81.3288 6.29579 80.9778 6.59895 80.9778 7.39671V13.4198Z" fill="white"/>
<path d="M87.5514 15.9805H85.7485V4.82773H87.3122V11.8879L87.9503 9.43083L89.3863 4.82773H91.3168V15.9805H89.7373V8.13047L89.0193 10.8748L87.5514 15.9884V15.9805ZM89.3544 2.34668C89.3065 2.93702 89.0353 3.08062 88.5566 3.08062C88.078 3.08062 87.8546 2.93702 87.8068 2.34668H86.7217C86.7536 3.43164 87.3281 4.11772 88.5566 4.11772C89.7852 4.11772 90.4234 3.43164 90.4234 2.34668H89.3544Z" fill="white"/>
<path d="M44.5599 31.1462H42.8049V19.9934H48.3333V31.1462H46.5463V21.5889H44.5519V31.1462H44.5599Z" fill="white"/>
<path d="M54.875 22.7537V24.2056C54.875 25.9926 54.0134 26.9579 52.2663 26.9579H51.4366V31.1462H49.6816V19.9934H52.2583C54.0134 19.9934 54.867 20.9667 54.867 22.7457L54.875 22.7537ZM51.4366 21.5889V25.3624H52.2663C52.8248 25.3624 53.1279 25.1071 53.1279 24.3093V22.634C53.1279 21.8363 52.8248 21.581 52.2663 21.581H51.4366V21.5889Z" fill="white"/>
<path d="M57.5156 24.6922H59.9249V26.2878H57.5156V29.5506H60.5392V31.1462H55.7606V19.9934H60.5392V21.5889H57.5156V24.6922Z" fill="white"/>
<path d="M66.7697 32.646V31.1462H63.0281V32.646H61.3209V29.5906H62.007C62.3101 29.2076 62.4059 28.7928 62.4378 28.1387L62.8367 20.0015H67.743V29.5906H68.5088V32.646H66.7697ZM64.161 28.1067C64.1131 28.9524 63.9536 29.3193 63.6664 29.5906H65.964V21.589H64.4801L64.161 28.1067Z" fill="white"/>
<path d="M71.3089 31.1462H69.5538V19.9934H75.0823V31.1462H73.2953V21.5889H71.3009V31.1462H71.3089Z" fill="white"/>
<path d="M81.632 22.7537V24.2056C81.632 25.9926 80.7704 26.9579 79.0233 26.9579H78.1936V31.1462H76.4386V19.9934H79.0154C80.7704 19.9934 81.6241 20.9667 81.6241 22.7457L81.632 22.7537ZM78.1936 21.5889V25.3624H79.0233C79.5818 25.3624 79.8849 25.1071 79.8849 24.3093V22.634C79.8849 21.8363 79.5818 21.581 79.0233 21.581H78.1936V21.5889Z" fill="white"/>
<path d="M84.3205 31.1462H82.5176V19.9934H84.0812V27.0536L84.7194 24.5965L86.1553 19.9934H88.086V31.1462H86.5064V23.2961L85.7884 26.0405L84.3205 31.1541V31.1462Z" fill="white"/>
<path d="M91.1573 31.1462H89.4022V19.9934H91.1573V24.772H93.1517V19.9934H94.9387V31.1462H93.1517V26.3675H91.1573V31.1462Z" fill="white"/>
<path d="M98.0819 31.1462H96.2789V19.9934H97.8425V27.0536L98.4808 24.5965L99.9167 19.9934H101.847V31.1462H100.268V23.2961L99.5497 26.0405L98.0819 31.1541V31.1462Z" fill="white"/>
<path d="M106.873 27.9153L108.07 20.0015H110.511V31.1542H108.852V23.1606L107.639 31.1542H105.98L104.671 23.2723V31.1542H103.14V20.0015H105.581L106.873 27.9153Z" fill="white"/>
<path d="M117.523 31.1462H115.752L115.449 29.1198H113.295L112.992 31.1462H111.381L113.168 19.9934H115.728L117.515 31.1462H117.523ZM113.527 27.6121H115.218L114.372 21.9719L113.527 27.6121Z" fill="white"/>
<path d="M117.906 19.9934H123.323V21.5889H121.488V31.1462H119.733V21.5889H117.898V19.9934H117.906Z" fill="white"/>
<path d="M125.916 24.6922H128.325V26.2878H125.916V29.5506H128.939V31.1462H124.161V19.9934H128.939V21.5889H125.916V24.6922Z" fill="white"/>
<path d="M129.609 29.5666C130.407 29.5666 130.663 29.4549 130.695 28.4178L130.982 19.9934H135.936V31.1462H134.149V21.5889H132.617L132.426 28.33C132.362 30.3723 131.628 31.1621 129.881 31.1621H129.609V29.5666Z" fill="white"/>
<path d="M137.356 31.1462V19.9934H139.111V24.1817H139.941C141.696 24.1817 142.549 25.1549 142.549 26.934V28.3859C142.549 30.1729 141.688 31.1382 139.941 31.1382H137.364L137.356 31.1462ZM139.933 29.5506C140.491 29.5506 140.794 29.2953 140.794 28.4976V26.8223C140.794 26.0245 140.491 25.7692 139.933 25.7692H139.103V29.5426H139.933V29.5506Z" fill="white"/>
<path d="M47.9983 37.9109V39.3628C47.9983 41.1498 47.1367 42.1151 45.3896 42.1151H44.5599V46.3034H42.8049V35.1506H45.3816C47.1367 35.1506 47.9903 36.1239 47.9903 37.9029L47.9983 37.9109ZM44.5599 36.7462V40.5196H45.3896C45.9481 40.5196 46.2512 40.2643 46.2512 39.4665V37.7912C46.2512 36.9935 45.9481 36.7382 45.3896 36.7382H44.5599V36.7462Z" fill="white"/>
<path d="M48.7401 37.8312C48.7401 36.0442 49.6815 35.031 51.3967 35.031C53.1119 35.031 54.0532 36.0521 54.0532 37.8312V43.6309C54.0532 45.4179 53.1119 46.431 51.3967 46.431C49.6815 46.431 48.7401 45.4099 48.7401 43.6309V37.8312ZM50.4953 43.7426C50.4953 44.5403 50.8463 44.8435 51.4047 44.8435C51.9631 44.8435 52.3142 44.5403 52.3142 43.7426V37.7195C52.3142 36.9217 51.9631 36.6186 51.4047 36.6186C50.8463 36.6186 50.4953 36.9217 50.4953 37.7195V43.7426Z" fill="white"/>
<path d="M60.3557 42.1549V43.6387C60.3557 45.4257 59.4621 46.4389 57.7469 46.4389C56.0318 46.4389 55.1382 45.4177 55.1382 43.6387V37.839C55.1382 36.052 56.0318 35.0388 57.7469 35.0388C59.4621 35.0388 60.3557 36.06 60.3557 37.839V38.9239H58.6963V37.7273C58.6963 36.9295 58.3453 36.6264 57.7869 36.6264C57.2284 36.6264 56.8774 36.9295 56.8774 37.7273V43.7504C56.8774 44.5482 57.2284 44.8354 57.7869 44.8354C58.3453 44.8354 58.6963 44.5482 58.6963 43.7504V42.1549H60.3557Z" fill="white"/>
<path d="M66.5781 42.1549V43.6387C66.5781 45.4257 65.6847 46.4389 63.9695 46.4389C62.2544 46.4389 61.3608 45.4177 61.3608 43.6387V37.839C61.3608 36.052 62.2544 35.0388 63.9695 35.0388C65.6847 35.0388 66.5781 36.06 66.5781 37.839V38.9239H64.9188V37.7273C64.9188 36.9295 64.5678 36.6264 64.0094 36.6264C63.4509 36.6264 63.0999 36.9295 63.0999 37.7273V43.7504C63.0999 44.5482 63.4509 44.8354 64.0094 44.8354C64.5678 44.8354 64.9188 44.5482 64.9188 43.7504V42.1549H66.5781Z" fill="white"/>
<path d="M69.5299 46.3112H67.727V35.1584H69.2906V42.2186L69.9288 39.7615L71.3647 35.1584H73.2954V46.3112H71.7158V38.4612L70.9978 41.2055L69.5299 46.3192V46.3112Z" fill="white"/>
<path d="M76.4067 46.3112H74.6037V35.1584H76.1673V42.2186L76.8055 39.7615L78.2415 35.1584H80.1721V46.3112H78.5925V38.4612L77.8745 41.2055L76.4067 46.3192V46.3112Z" fill="white"/>
<path d="M19.2149 0.00146484L12.8169 6.39953L16.0398 9.63048L19.2149 12.8056L25.6209 6.39953L19.2149 0.00146484Z" fill="#E51E4C"/>
<path d="M6.41089 12.8054L0.00482178 19.2115L6.41089 25.6095L12.817 19.2115V12.8054H6.41089Z" fill="#E51E4C"/>
<path d="M19.2109 12.7979L12.8083 19.2004L19.2109 25.603L25.6135 19.2004L19.2109 12.7979Z" fill="#E51E4C"/>
<path d="M6.40257 1.97819e-05L0 6.40259L6.40258 12.8052L12.8051 6.4026L6.40257 1.97819e-05Z" fill="#E51E4C"/>
</svg>
