<svg width="12" height="16" viewBox="0 0 12 16" fill="none" xmlns="http://www.w3.org/2000/svg">
<g clip-path="url(#clip0_235_875)">
<path d="M5.96781 15.9988C5.96781 15.9988 5.65536 15.6343 5.03046 14.9052C4.40556 14.1761 3.72077 13.2909 2.97609 12.2494C2.23142 11.2079 1.55184 10.1143 0.937353 8.96864C0.312451 7.8334 0 6.84918 0 6.01597C0 5.18277 0.156225 4.40165 0.468676 3.67259C0.781127 2.94354 1.20814 2.30822 1.74972 1.76664C2.29131 1.22506 2.92142 0.792838 3.64005 0.469973C4.3691 0.157521 5.14502 0.00129604 5.96781 0.00129604C6.7906 0.00129604 7.56131 0.157521 8.27995 0.469973C9.009 0.792838 9.64171 1.22506 10.1781 1.76664C10.7145 2.30822 11.1389 2.94354 11.4513 3.67259C11.7638 4.40165 11.92 5.18277 11.92 6.01597C11.92 6.84918 11.6128 7.8334 10.9983 8.96864C10.3734 10.1143 9.68858 11.2079 8.94391 12.2494C8.19923 13.2909 7.51444 14.1761 6.88954 14.9052C6.27505 15.6343 5.96781 15.9988 5.96781 15.9988ZM5.96781 8.14064C6.64479 8.14064 7.22543 7.90109 7.70972 7.422C8.19402 6.94291 8.43617 6.35967 8.43617 5.67228C8.43617 4.9953 8.19402 4.41466 7.70972 3.93037C7.22543 3.44607 6.64479 3.20392 5.96781 3.20392C5.28042 3.20392 4.69457 3.44607 4.21028 3.93037C3.72598 4.41466 3.48383 4.9953 3.48383 5.67228C3.48383 6.35967 3.72598 6.94291 4.21028 7.422C4.69457 7.90109 5.28042 8.14064 5.96781 8.14064Z" fill="#E51E4C"/>
</g>
<defs>
<clipPath id="clip0_235_875">
<rect width="11.92" height="16" fill="white" transform="matrix(1 0 0 -1 0 16)"/>
</clipPath>
</defs>
</svg>
