<svg width="84" height="84" viewBox="0 0 84 84" fill="none" xmlns="http://www.w3.org/2000/svg">
<g clip-path="url(#clip0_83_495)">
<mask id="mask0_83_495" style="mask-type:luminance" maskUnits="userSpaceOnUse" x="0" y="0" width="84" height="84">
<path d="M83.5842 0H0.415848V84H83.5842V0Z" fill="white"/>
</mask>
<g mask="url(#mask0_83_495)">
<path d="M0.415848 40.32C0.415848 21.313 0.415848 11.8095 6.26212 5.90473C12.1084 0 21.5178 0 40.3366 0H43.6634C62.4822 0 71.8916 0 77.7379 5.90473C83.5842 11.8095 83.5842 21.313 83.5842 40.32V43.68C83.5842 62.687 83.5842 72.1905 77.7379 78.0953C71.8916 84 62.4822 84 43.6634 84H40.3366C21.5178 84 12.1084 84 6.26212 78.0953C0.415848 72.1905 0.415848 62.687 0.415848 43.68V40.32Z" fill="#0077FF"/>
<path d="M44.6685 60.5153C25.713 60.5153 14.9012 47.3903 14.4507 25.5503H23.9457C24.2576 41.5803 31.2575 48.3702 36.802 49.7703V25.5503H45.7429V39.3752C51.2181 38.7802 56.9699 32.4803 58.9105 25.5503H67.8514C66.3613 34.0903 60.1236 40.3902 55.688 42.9802C60.1236 45.0802 67.228 50.5752 69.9309 60.5153H60.089C57.9751 53.8653 52.7083 48.7203 45.7429 48.0202V60.5153H44.6685Z" fill="white"/>
</g>
</g>
<defs>
<clipPath id="clip0_83_495">
<rect width="84" height="84" fill="white"/>
</clipPath>
</defs>
</svg>
