<svg width="163" height="44" viewBox="0 0 163 44" fill="none" xmlns="http://www.w3.org/2000/svg">
<path d="M129.09 13.0559L135.114 8.67529H114.945V34.9158H135.114V30.5353H120.708V23.8355H133.019V19.455H120.708V13.0559H129.09Z" fill="#21A038"/>
<path d="M99.7093 18.8967H92.7245V13.0559H103.9L109.925 8.67529H86.9619V34.9158H98.9672C105.69 34.9158 109.576 31.9096 109.576 26.67C109.576 21.6453 106.083 18.8967 99.7093 18.8967ZM98.7489 30.5353H92.7245V23.2772H98.7489C102.416 23.2772 104.119 24.4797 104.119 26.9277C104.119 29.3757 102.285 30.5353 98.7489 30.5353Z" fill="#21A038"/>
<path d="M151.441 8.67529H140.484V34.9158H146.246V27.486H151.485C158.47 27.486 162.835 23.8785 162.835 18.0807C162.835 12.2828 158.47 8.67529 151.441 8.67529ZM151.31 23.1054H146.203V13.0559H151.31C155.021 13.0559 157.029 14.8596 157.029 18.0807C157.029 21.3017 155.021 23.1054 151.31 23.1054Z" fill="#21A038"/>
<path d="M77.0958 29.2469C75.5678 30.0629 73.8653 30.4924 72.119 30.4924C66.924 30.4924 63.1696 26.8419 63.1696 21.8171C63.1696 16.7923 66.924 13.1418 72.119 13.1418C73.9962 13.0989 75.8298 13.7001 77.3577 14.7738L81.505 11.7675L81.2431 11.5099C78.842 9.40546 75.6115 8.33179 71.9444 8.33179C67.9718 8.33179 64.3483 9.66314 61.729 12.0682C59.1097 14.5591 57.6254 18.0378 57.7127 21.6453C57.669 25.2958 59.1097 28.8175 61.729 31.3943C64.4793 33.9281 68.1464 35.3454 71.9008 35.2595C76.048 35.2595 79.6715 33.8422 82.1162 31.2654L78.4054 28.5598L77.0958 29.2469Z" fill="#21A038"/>
<path d="M39.683 8.50342C40.7307 9.83477 41.6038 11.295 42.346 12.8411L22.1771 27.4859L13.7079 22.2464V15.9762L22.1334 21.1727L39.683 8.50342Z" fill="#21A038"/>
<path d="M5.1077 21.8171C5.1077 21.5164 5.1077 21.2587 5.15136 20.9581L0.0436556 20.7004C0.0436556 21.044 0 21.4305 0 21.7741C0 27.7867 2.48837 33.2409 6.50468 37.192L10.1281 33.6275C7.02855 30.6212 5.1077 26.4553 5.1077 21.8171Z" fill="url(#paint0_linear_83_511)"/>
<path d="M22.1334 5.06775C22.439 5.06775 22.7009 5.06775 23.0065 5.1107L23.2684 0.0859156C22.9192 0.0859156 22.5263 0.0429688 22.1771 0.0429688C16.0653 0.0429688 10.521 2.49094 6.5047 6.44205L10.1281 10.0066C13.184 6.95742 17.4623 5.06775 22.1334 5.06775Z" fill="url(#paint1_linear_83_511)"/>
<path d="M22.1334 38.5663C21.8278 38.5663 21.5659 38.5663 21.2603 38.5234L20.9984 43.5482C21.3476 43.5482 21.7405 43.5911 22.0897 43.5911C28.2015 43.5911 33.7458 41.1431 37.7621 37.192L34.1387 33.6274C31.0828 36.7196 26.8482 38.5663 22.1334 38.5663Z" fill="url(#paint2_linear_83_511)"/>
<path d="M31.7376 7.98812L36.0595 4.853C32.2615 1.84672 27.4157 0 22.1334 0V5.02479C25.7131 5.06773 29.0309 6.1414 31.7376 7.98812Z" fill="url(#paint3_linear_83_511)"/>
<path d="M44.3104 21.8171C44.3104 20.4857 44.1795 19.1973 43.9612 17.9089L39.2027 21.3876C39.2027 21.5165 39.2027 21.6883 39.2027 21.8171C39.2027 26.756 37.02 31.1795 33.5712 34.2288L37.02 37.9651C41.4728 34.014 44.3104 28.2162 44.3104 21.8171Z" fill="#21A038"/>
<path d="M22.1334 38.5663C17.113 38.5663 12.6165 36.4189 9.51691 33.0261L5.71887 36.4189C9.77884 40.8425 15.6287 43.5911 22.1334 43.5911V38.5663Z" fill="url(#paint4_linear_83_511)"/>
<path d="M10.7393 9.40532L7.29048 5.66895C2.79396 9.66301 0 15.4179 0 21.817H5.1077C5.1077 16.921 7.29048 12.4546 10.7393 9.40532Z" fill="url(#paint5_linear_83_511)"/>
<defs>
<linearGradient id="paint0_linear_83_511" x1="597.633" y1="1608.73" x2="89.923" y2="121.706" gradientUnits="userSpaceOnUse">
<stop offset="0.1444" stop-color="#F2E913"/>
<stop offset="0.3037" stop-color="#E7E518"/>
<stop offset="0.5823" stop-color="#CADB26"/>
<stop offset="0.891" stop-color="#A3CD39"/>
</linearGradient>
<linearGradient id="paint1_linear_83_511" x1="152.1" y1="581.694" x2="1471.73" y2="72.1462" gradientUnits="userSpaceOnUse">
<stop offset="0.0592" stop-color="#0FA8E0"/>
<stop offset="0.5385" stop-color="#0099F9"/>
<stop offset="0.9234" stop-color="#0291EB"/>
</linearGradient>
<linearGradient id="paint2_linear_83_511" x1="-8.99304" y1="601.368" x2="1567.47" y2="240.348" gradientUnits="userSpaceOnUse">
<stop offset="0.1226" stop-color="#A3CD39"/>
<stop offset="0.2846" stop-color="#86C339"/>
<stop offset="0.8693" stop-color="#21A038"/>
</linearGradient>
<linearGradient id="paint3_linear_83_511" x1="-82.8103" y1="321.495" x2="1226.72" y2="730.895" gradientUnits="userSpaceOnUse">
<stop offset="0.0566" stop-color="#0291EB"/>
<stop offset="0.79" stop-color="#0C8ACB"/>
</linearGradient>
<linearGradient id="paint4_linear_83_511" x1="135.59" y1="453.922" x2="1540.28" y2="985.711" gradientUnits="userSpaceOnUse">
<stop offset="0.1324" stop-color="#F2E913"/>
<stop offset="0.2977" stop-color="#EBE716"/>
<stop offset="0.5306" stop-color="#D9E01F"/>
<stop offset="0.8023" stop-color="#BBD62D"/>
<stop offset="0.9829" stop-color="#A3CD39"/>
</linearGradient>
<linearGradient id="paint5_linear_83_511" x1="388.648" y1="1681.16" x2="938.016" y2="233.128" gradientUnits="userSpaceOnUse">
<stop offset="0.0698" stop-color="#A3CD39"/>
<stop offset="0.2599" stop-color="#81C55F"/>
<stop offset="0.9216" stop-color="#0FA8E0"/>
</linearGradient>
</defs>
</svg>
