<svg width="173" height="40" viewBox="0 0 173 40" fill="none" xmlns="http://www.w3.org/2000/svg">
<path fill-rule="evenodd" clip-rule="evenodd" d="M35.8782 1.84066C26.4358 -0.613554 16.4985 -0.613554 7.05601 1.84066C3.88631 2.66433 1.46541 5.19365 0.836151 8.33891C-0.278717 13.9129 -0.278717 19.6458 0.836151 25.2196C1.46525 28.3649 3.88615 30.8943 7.05601 31.7188C12.7665 33.203 18.6813 33.7959 24.5814 33.4746C25.3473 33.4331 26.1013 33.68 26.6873 34.1634L33.6413 39.901C33.7687 40.0065 33.9478 40.0296 34.0991 39.961C34.2503 39.8923 34.3477 39.7436 34.3477 39.5806V32.9179C34.3477 32.4385 34.6833 32.0175 35.1587 31.9009C35.399 31.8418 35.6388 31.781 35.8782 31.7188C39.0481 30.8943 41.4691 28.3649 42.0981 25.2196C43.213 19.6458 43.213 13.9129 42.0981 8.33891C41.4689 5.19365 39.048 2.66433 35.8782 1.84066ZM30.4118 7.42858C31.0577 7.42858 31.5815 7.94025 31.5815 8.57143V12.5714C31.5815 13.2026 31.0577 13.7143 30.4118 13.7143H26.3178C25.6718 13.7143 25.1481 14.226 25.1481 14.8571V25.7142C25.1481 26.3455 24.6245 26.8571 23.9784 26.8571H19.2997C18.6537 26.8571 18.13 26.3455 18.13 25.7142V14.8571C18.13 14.226 17.6063 13.7143 16.9604 13.7143H12.8665C12.2205 13.7143 11.6968 13.2026 11.6968 12.5714V8.57143C11.6968 7.94025 12.2205 7.42858 12.8665 7.42858H30.4118Z" fill="#FC3234"/>
<path d="M60.3846 29.3749C60.1715 29.3749 59.9973 29.3078 59.8618 29.1737C59.7263 29.0395 59.6585 28.867 59.6585 28.6562V13.2462H54.3725C54.1789 13.2462 54.0143 13.179 53.8788 13.0449C53.7433 12.9108 53.6755 12.7478 53.6755 12.5562V9.96865C53.6755 9.75781 53.7433 9.58531 53.8788 9.45115C54.0143 9.31699 54.1789 9.2499 54.3725 9.2499H69.5915C69.8045 9.2499 69.9788 9.31699 70.1142 9.45115C70.2497 9.58531 70.3176 9.75781 70.3176 9.96865V12.5562C70.3176 12.7478 70.2497 12.9108 70.1142 13.0449C69.9788 13.179 69.8045 13.2462 69.5915 13.2462H64.3345V28.6562C64.3345 28.867 64.2667 29.0395 64.1312 29.1737C63.9957 29.3078 63.8215 29.3749 63.6084 29.3749H60.3846ZM76.9205 29.6624C74.6938 29.6624 72.9222 29.049 71.6055 27.8224C70.3082 26.5958 69.6208 24.8133 69.5433 22.4749C69.5433 22.3215 69.5433 22.1203 69.5433 21.8712C69.5433 21.6028 69.5433 21.392 69.5433 21.2387C69.6208 19.7628 69.9597 18.4978 70.5599 17.4437C71.1601 16.3703 72.0023 15.5558 73.0867 14.9999C74.171 14.4249 75.4392 14.1374 76.8914 14.1374C78.5179 14.1374 79.8732 14.4728 80.9576 15.1437C82.0612 15.7953 82.8842 16.6962 83.4263 17.8462C83.9878 18.977 84.2686 20.2803 84.2686 21.7562V22.4174C84.2686 22.609 84.1911 22.772 84.0362 22.9062C83.9007 23.0403 83.736 23.1074 83.5425 23.1074H74.0451C74.0451 23.1265 74.0451 23.1649 74.0451 23.2224C74.0451 23.2608 74.0451 23.299 74.0451 23.3374C74.0645 23.9508 74.1806 24.5162 74.3937 25.0337C74.626 25.532 74.9455 25.9345 75.3521 26.2412C75.778 26.5478 76.2815 26.7012 76.8624 26.7012C77.3464 26.7012 77.7434 26.634 78.0532 26.4999C78.3629 26.3658 78.6147 26.2028 78.8083 26.0112C79.0214 25.8195 79.1762 25.6565 79.273 25.5224C79.4473 25.3308 79.5828 25.2158 79.6796 25.1774C79.7958 25.1199 79.9701 25.0912 80.2024 25.0912H83.223C83.4166 25.0912 83.5715 25.1487 83.6877 25.2637C83.8232 25.3595 83.8813 25.5033 83.8619 25.6949C83.8426 26.0015 83.678 26.3849 83.3682 26.8449C83.0778 27.2858 82.6421 27.7265 82.0612 28.1674C81.4804 28.589 80.7543 28.9437 79.8829 29.2312C79.0309 29.5187 78.0435 29.6624 76.9205 29.6624ZM74.0451 20.4912H79.7377V20.4337C79.7377 19.7437 79.6215 19.1495 79.3892 18.6512C79.1762 18.1337 78.8567 17.7312 78.4308 17.4437C78.0048 17.1562 77.4916 17.0124 76.8914 17.0124C76.2912 17.0124 75.778 17.1562 75.3521 17.4437C74.9262 17.7312 74.597 18.1337 74.3646 18.6512C74.1516 19.1495 74.0451 19.7437 74.0451 20.4337V20.4912ZM87.8688 29.3749C87.6753 29.3749 87.5106 29.3078 87.3751 29.1737C87.2396 29.0395 87.1718 28.867 87.1718 28.6562V15.1437C87.1718 14.9328 87.2396 14.7603 87.3751 14.6262C87.5106 14.492 87.6753 14.4249 87.8688 14.4249H90.7151C90.9282 14.4249 91.1024 14.492 91.2379 14.6262C91.3734 14.7603 91.4412 14.9328 91.4412 15.1437V16.2649C91.9447 15.6515 92.5933 15.1437 93.3872 14.7412C94.1811 14.3387 95.1491 14.1374 96.2915 14.1374C97.434 14.1374 98.4311 14.3962 99.2831 14.9137C100.154 15.412 100.832 16.1499 101.316 17.1274C101.82 18.0858 102.071 19.2549 102.071 20.6349V28.6562C102.071 28.867 101.994 29.0395 101.839 29.1737C101.703 29.3078 101.539 29.3749 101.345 29.3749H98.2665C98.0535 29.3749 97.8792 29.3078 97.7437 29.1737C97.6082 29.0395 97.5404 28.867 97.5404 28.6562V20.8074C97.5404 19.7915 97.2888 19.0058 96.7853 18.4499C96.3013 17.8749 95.5848 17.5874 94.6361 17.5874C93.726 17.5874 92.9999 17.8749 92.4578 18.4499C91.9157 19.0058 91.6445 19.7915 91.6445 20.8074V28.6562C91.6445 28.867 91.5767 29.0395 91.4412 29.1737C91.3057 29.3078 91.1411 29.3749 90.9475 29.3749H87.8688ZM113.945 29.6624C112.125 29.6624 110.576 29.3653 109.298 28.7712C108.039 28.1578 107.061 27.2762 106.364 26.1262C105.667 24.957 105.28 23.5387 105.203 21.8712C105.183 21.0853 105.174 20.242 105.174 19.3412C105.174 18.4403 105.183 17.5778 105.203 16.7537C105.28 15.1053 105.667 13.7062 106.364 12.5562C107.081 11.387 108.078 10.4957 109.356 9.8824C110.634 9.26906 112.163 8.9624 113.945 8.9624C115.242 8.9624 116.423 9.12531 117.488 9.45115C118.553 9.77699 119.473 10.2466 120.247 10.8599C121.022 11.4732 121.622 12.192 122.048 13.0162C122.474 13.8403 122.706 14.7603 122.745 15.7762C122.745 15.9487 122.677 16.0924 122.542 16.2074C122.426 16.3224 122.28 16.3799 122.106 16.3799H118.795C118.563 16.3799 118.379 16.3224 118.243 16.2074C118.108 16.0924 118.001 15.9008 117.924 15.6324C117.633 14.5015 117.149 13.7253 116.472 13.3037C115.794 12.882 114.952 12.6712 113.945 12.6712C112.744 12.6712 111.796 12.997 111.098 13.6487C110.401 14.3003 110.024 15.3833 109.966 16.8974C109.908 18.469 109.908 20.079 109.966 21.7274C110.024 23.2415 110.401 24.3245 111.098 24.9762C111.796 25.6278 112.744 25.9537 113.945 25.9537C114.952 25.9537 115.794 25.7428 116.472 25.3212C117.169 24.8803 117.653 24.104 117.924 22.9924C118.001 22.7049 118.108 22.5133 118.243 22.4174C118.379 22.3024 118.563 22.2449 118.795 22.2449H122.106C122.28 22.2449 122.426 22.3024 122.542 22.4174C122.677 22.5324 122.745 22.6762 122.745 22.8487C122.706 23.8645 122.474 24.7845 122.048 25.6087C121.622 26.4328 121.022 27.1515 120.247 27.7649C119.473 28.3783 118.553 28.8478 117.488 29.1737C116.423 29.4995 115.242 29.6624 113.945 29.6624ZM126.415 29.3749C126.202 29.3749 126.028 29.3078 125.892 29.1737C125.757 29.0395 125.689 28.867 125.689 28.6562V9.68115C125.689 9.47031 125.757 9.29781 125.892 9.16365C126.028 9.02949 126.202 8.9624 126.415 8.9624H129.552C129.745 8.9624 129.91 9.02949 130.045 9.16365C130.181 9.29781 130.249 9.47031 130.249 9.68115V16.1499C130.772 15.5365 131.411 15.0478 132.166 14.6837C132.921 14.3195 133.831 14.1374 134.896 14.1374C136.039 14.1374 137.045 14.3962 137.916 14.9137C138.807 15.412 139.504 16.1499 140.008 17.1274C140.511 18.0858 140.763 19.2549 140.763 20.6349V28.6562C140.763 28.867 140.694 29.0395 140.559 29.1737C140.424 29.3078 140.25 29.3749 140.037 29.3749H136.871C136.678 29.3749 136.512 29.3078 136.377 29.1737C136.242 29.0395 136.174 28.867 136.174 28.6562V20.8074C136.174 19.7915 135.922 19.0058 135.419 18.4499C134.915 17.8749 134.199 17.5874 133.269 17.5874C132.359 17.5874 131.624 17.8749 131.062 18.4499C130.52 19.0058 130.249 19.7915 130.249 20.8074V28.6562C130.249 28.867 130.181 29.0395 130.045 29.1737C129.91 29.3078 129.745 29.3749 129.552 29.3749H126.415ZM148.681 29.6624C147.656 29.6624 146.736 29.4708 145.922 29.0874C145.109 28.6849 144.461 28.1483 143.976 27.4774C143.493 26.8065 143.25 26.059 143.25 25.2349C143.25 23.874 143.802 22.8008 144.906 22.0149C146.03 21.229 147.501 20.6924 149.32 20.4049L153.125 19.8587V19.3412C153.125 18.5937 152.951 18.0187 152.602 17.6162C152.254 17.2137 151.644 17.0124 150.773 17.0124C150.134 17.0124 149.621 17.137 149.233 17.3862C148.847 17.6353 148.546 17.9612 148.333 18.3637C148.179 18.6128 147.955 18.7374 147.665 18.7374H144.906C144.694 18.7374 144.528 18.6799 144.412 18.5649C144.296 18.4308 144.248 18.2774 144.267 18.1049C144.267 17.779 144.393 17.3958 144.644 16.9549C144.897 16.514 145.283 16.0828 145.806 15.6612C146.329 15.2203 146.997 14.8562 147.81 14.5687C148.623 14.2812 149.621 14.1374 150.802 14.1374C152.022 14.1374 153.067 14.2812 153.938 14.5687C154.81 14.8562 155.507 15.2587 156.03 15.7762C156.552 16.2937 156.94 16.8974 157.191 17.5874C157.444 18.2583 157.569 18.9865 157.569 19.7724V28.6562C157.569 28.867 157.502 29.0395 157.366 29.1737C157.23 29.3078 157.056 29.3749 156.843 29.3749H153.997C153.803 29.3749 153.639 29.3078 153.503 29.1737C153.368 29.0395 153.299 28.867 153.299 28.6562V27.5924C153.048 27.9565 152.71 28.3015 152.283 28.6274C151.857 28.934 151.345 29.1833 150.744 29.3749C150.163 29.5665 149.476 29.6624 148.681 29.6624ZM149.843 26.6724C150.482 26.6724 151.054 26.5383 151.557 26.2699C152.061 26.0015 152.457 25.5895 152.748 25.0337C153.038 24.4778 153.183 23.7783 153.183 22.9349V22.4462L150.482 22.8774C149.437 23.0499 148.673 23.3087 148.188 23.6537C147.704 23.9987 147.462 24.4203 147.462 24.9187C147.462 25.2828 147.569 25.599 147.781 25.8674C148.013 26.1358 148.314 26.337 148.681 26.4712C149.05 26.6053 149.437 26.6724 149.843 26.6724ZM168.233 29.3749C167.033 29.3749 166.007 29.1833 165.154 28.7999C164.303 28.3974 163.654 27.784 163.208 26.9599C162.783 26.1358 162.57 25.1008 162.57 23.8549V17.8174H160.304C160.092 17.8174 159.918 17.7503 159.781 17.6162C159.646 17.482 159.578 17.3095 159.578 17.0987V15.1437C159.578 14.9328 159.646 14.7603 159.781 14.6262C159.918 14.492 160.092 14.4249 160.304 14.4249H162.57V9.68115C162.57 9.47031 162.638 9.29781 162.773 9.16365C162.928 9.02949 163.102 8.9624 163.296 8.9624H166.142C166.355 8.9624 166.53 9.02949 166.665 9.16365C166.801 9.29781 166.868 9.47031 166.868 9.68115V14.4249H170.498C170.693 14.4249 170.857 14.492 170.992 14.6262C171.129 14.7603 171.196 14.9328 171.196 15.1437V17.0987C171.196 17.3095 171.129 17.482 170.992 17.6162C170.857 17.7503 170.693 17.8174 170.498 17.8174H166.868V23.5099C166.868 24.2383 166.994 24.8133 167.246 25.2349C167.517 25.6374 167.982 25.8387 168.64 25.8387H170.76C170.954 25.8387 171.118 25.9058 171.254 26.0399C171.39 26.174 171.457 26.337 171.457 26.5287V28.6562C171.457 28.867 171.39 29.0395 171.254 29.1737C171.118 29.3078 170.954 29.3749 170.76 29.3749H168.233Z" fill="#282F3D"/>
</svg>
