<?xml version="1.0" encoding="utf-8"?><svg xmlns="http://www.w3.org/2000/svg" xmlns:xlink="http://www.w3.org/1999/xlink"><symbol fill="none" viewBox="0 0 24 24" id="double-done" xmlns="http://www.w3.org/2000/svg"><path d="m2 14 3.233 2.425a1 1 0 0 0 1.374-.167L15 6" stroke="#E51E4C" stroke-width="1.2" stroke-linecap="round"/><path fill-rule="evenodd" clip-rule="evenodd" d="m9.951 15.33 1.902 1.52a1.6 1.6 0 0 0 2.238-.236L22.464 6.38a.6.6 0 0 0-.928-.76l-8.374 10.235a.4.4 0 0 1-.56.059l-1.89-1.514-.76.93Z" fill="#7E869E" fill-opacity=".25"/></symbol><symbol fill="none" viewBox="0 0 16 16" id="telegram" xmlns="http://www.w3.org/2000/svg"><path d="m14.629 3.698-2.012 9.618c-.152.679-.548.848-1.11.528l-3.066-2.29-1.48 1.442c-.163.166-.3.305-.616.305l.22-3.165 5.683-5.204c.247-.223-.054-.347-.384-.123L4.839 9.29l-3.024-.959c-.658-.208-.67-.667.137-.986L13.78 2.727c.548-.208 1.027.124.849.971Z" fill="#000"/></symbol></svg>