<svg width="557" height="559" viewBox="0 0 557 559" fill="none" xmlns="http://www.w3.org/2000/svg">
<path d="M278.005 141.384L278.628 141.654L334.721 12.6635L333.476 154.873L438.33 58.7992L379.355 188.209L514.217 143.088L407.713 237.322L549.272 250.946L413.639 293.713L537.407 363.742L396.118 347.655L480.705 461.966L358.168 389.799L388.947 528.64L306.363 412.854L278.005 552.222L249.647 412.854L167.063 528.64L197.842 389.799L75.3055 461.966L159.906 347.655L18.6031 363.742L142.371 293.713L6.75123 250.946L148.311 237.322L41.7928 143.088L176.655 188.209L117.68 58.7992L222.534 154.873L221.303 12.6635L278.005 143.088L278.628 141.654L278.005 141.384L278.628 141.113L219.882 6.034L221.154 151.774L113.702 53.3062L174.139 185.936L35.921 139.692L145.077 236.266L0 250.242L139.003 294.078L12.1495 365.852L156.97 349.346L70.2725 466.512L195.854 392.533L164.303 534.836L248.944 416.182L278.005 559L307.066 416.182L391.707 534.836L360.156 392.533L485.751 466.512L399.054 349.346L543.861 365.839L417.008 294.078L556.024 250.242L410.933 236.266L520.103 139.692L381.871 185.936L442.321 53.3062L334.856 151.774L336.128 6.034L277.383 141.113L278.005 141.384L278.628 141.113L278.005 141.384Z" fill="#34C759"/>
<path d="M305.443 144.076L305.998 144.468L386.106 28.845L357.234 168.105L478.77 94.2468L395.753 209.721L536.812 191.687L414.018 263.407L550.219 304.306L408.863 319.879L516.653 412.638L381.181 369.37L441.929 497.955L335.776 403.329L338.956 545.511L280.467 415.885L225.551 547.067L224.848 404.858L121.319 502.365L178.509 372.157L44.2822 419.132L149.488 323.437L7.75241 311.748L142.777 267.127L18.0619 198.803L159.568 212.955L73.4113 99.8074L196.923 170.296L164.249 31.8891L248.416 146.525L274.853 6.79177L305.118 145.74L305.998 144.468L305.443 144.076L306.106 143.941L274.758 0L247.658 143.21L161.408 25.7331L194.893 167.577L68.3107 95.3427L156.604 211.304L11.5814 196.801L139.408 266.816L1.01472 312.559L146.268 324.533L38.451 422.595L176.019 374.457L117.409 507.913L223.508 407.97L224.239 553.724L280.508 419.281L340.457 552.127L337.197 406.414L445.988 503.394L383.738 371.616L522.579 415.952L412.11 320.88L556.984 304.915L417.386 263.001L543.238 189.495L398.675 207.976L483.749 89.6332L359.196 165.331L388.771 22.6078L304.888 143.697L305.443 144.076L306.106 143.941L305.443 144.076Z" fill="#34C759"/>
</svg>
