<svg width="130" height="130" viewBox="0 0 130 130" fill="none" xmlns="http://www.w3.org/2000/svg">
<path d="M61.59 40.23C66.07 40.23 70.29 41.28 74.05 43.15L74.1 43.17L82.46 34.69L81.06 33.9C75.31 30.64 68.66 28.76 61.59 28.76C50.68 28.76 40.77 33.2 33.62 40.36C26.46 47.52 22.01 57.43 22.02 68.33C22.02 79.24 26.46 89.15 33.62 96.3C40.78 103.46 50.69 107.91 61.59 107.9C72.5 107.9 82.41 103.46 89.56 96.3C96.72 89.14 101.17 79.23 101.16 68.33C101.16 60.69 98.97 53.54 95.21 47.49L94.53 46.39L86.14 54.67C88.4 58.73 89.69 63.38 89.69 68.33C89.69 76.09 86.54 83.1 81.44 88.2C76.34 93.3 69.33 96.44 61.57 96.45C53.81 96.45 46.8 93.3 41.7 88.2C36.6 83.1 33.46 76.09 33.45 68.33C33.45 60.57 36.6 53.56 41.7 48.46C46.8 43.36 53.81 40.22 61.57 40.21L61.59 40.23Z" fill="#287EE3"/>
<path d="M113.2 34.61L106.53 34.56L102.29 38.74L104.74 42.87C109.17 50.34 111.72 59.04 111.72 68.34C111.72 82.16 106.1 94.68 97.02 103.77C87.93 112.85 75.42 118.47 61.59 118.47C47.77 118.47 35.25 112.85 26.16 103.77C17.08 94.68 11.46 82.17 11.46 68.34C11.46 54.52 17.08 42 26.16 32.91C35.25 23.83 47.76 18.21 61.59 18.21C70.47 18.21 78.79 20.53 86.03 24.6L90.13 26.9L93.92 23.06L94 15.86L90.84 14.15C82.14 9.43002 72.16 6.75 61.59 6.75C44.61 6.75 29.2 13.66 18.06 24.81C6.91 35.95 0 51.37 0 68.34C0 85.32 6.91 100.73 18.06 111.87C29.2 123.02 44.62 129.93 61.59 129.93C78.57 129.93 93.98 123.02 105.12 111.87C116.27 100.73 123.18 85.31 123.18 68.34C123.18 57.17 120.17 46.67 114.95 37.63L113.2 34.61Z" fill="#287EE3"/>
<path d="M68.24 56.44C66.27 55.34 64.01 54.71 61.59 54.71C54.06 54.71 47.95 60.82 47.95 68.35C47.95 75.88 54.06 81.99 61.59 81.99C69.12 81.99 75.23 75.88 75.23 68.35C75.23 65.45 74.31 62.76 72.77 60.55L103.8 29.37L112.19 29.62L129.12 12.69L116.79 12.33L116.43 0L99.5 16.93L99.73 24.82L68.24 56.46V56.44Z" fill="#287EE3"/>
</svg>
